<svg xmlns="http://www.w3.org/2000/svg" viewBox="0 0 786.68 729.54"><title>a</title><g id="Layer_2" data-name="Layer 2"><path d="M476.29,68.47c-2,3-6.42,3.58-9,6,6,.45,17.4-1.64,18.44,5.15-5.94.19-12.37-2.76-20.58-1.72,3.51,2,9.53,4.36,6.86,9.86-3.12,1.78-18.39-5.65-17.58-10.72.44-2.77,15.3-9,18.43-9.43C474.34,67.42,475.76,67.28,476.29,68.47Z" style="fill:#414042;fill-rule:evenodd"/><path d="M340.39,87.76c.82,4.84-9.74,5.41-12.86,6.86C329.15,89.93,335.39,87.65,340.39,87.76Z" style="fill:#414042;fill-rule:evenodd"/><path d="M556.89,107.48c-5.49-.45-9.66-5-14.57-7.71s-10.51-4.4-15.44-7.29c.07-.5-.09-.77-.43-.86.19-.38.38-.77.86-.86C538.13,95.09,554.16,96.49,556.89,107.48Z" style="fill:#414042;fill-rule:evenodd"/><path d="M308.67,98.05c-1.28,8.11-14.23,9.18-21,12.86.64-3.65,5.62-5,9-6.86,3.66-2.07,7.39-4.3,10.71-6Z" style="fill:#414042;fill-rule:evenodd"/><path d="M177.49,164.5c-3.47,5.52-10.23,3.83-17.58,4.72-4.95.59-9.84,2.41-15,3.43-7.68,1.51-17,2.76-25.72,1.28-4.23-.72-12.7-2-11.15-8.14,2.14-1.56,4.28.2,6.44.43,13.81,1.44,31.82-.67,46.3-.43,4.59.07,10,1.59,12.86-2.15-2.51-8.37-1.49-19.85-2.15-31.72-.4-7.29-2.48-12.94-1.71-19.29-1.8-2.63-5.91-1-6.43-4.29-1.16-7.36,12.35-3.27,13.72.86,1,3,.15,9,.43,12.86.61,8.8-2,19.05-1.72,27.44C175.94,155.3,178.09,159.81,177.49,164.5Z" style="fill:#414042;fill-rule:evenodd"/><path d="M162.05,105.77c-1.92,2.72-6,2.46-9.43,3a272.48,272.48,0,0,1-30.44,3.43c-2.42.11-4.89-.29-7.29,0-7,.83-15.09,3.36-23.15,1.71-1.19,5.81-1.44,12.56-1.71,19.29,3.64,4.65,10.93,5.65,12,12.87-5.58.07-7.16-7.37-12-9.44-.63,8-.76,16.39-1.29,24.44,1-.89,1.23-2.49,2.15-3.43,8.83-6.26,17.88-15.34,27.43-21.86,3-2,9-8,10.29-.86,8.69,2,15,6.47,21.87,10.29,7.26-4,10-14.82,19.72-15-.78,2.52-3.54,3-5.15,4.72-3.85,4.05-6.12,9.56-10.29,13.29a18.31,18.31,0,0,0,6.86,6.43c2.53,1.52,6.85,1.93,7.29,5.57-14.74-3.12-23.34-16.09-39.87-18.86-1.08-.49-1.35-1.79-2.14-2.57-3.81-.85-6.49,2.25-9,3.86-9.59,6.12-16.46,14.49-25.29,21.86,2.08,1.21,5.61,1,5.57,4.29,2.69,1.39,7.56.36,6.86,3.86-.38,2.79-4,0-7.28-.43-4.19-.55-8.57.84-9.44-2.15-.71-2.44,1.4-3.67,3.43-5.14-.9-1-2.64-1.07-2.57-3-1.51.34-.36,3.35-3,2.57-.5-7.44-.84-16.1-1.29-24.86-.36-7.1.79-13.52.86-19.73,0-3-1.5-6.57,1.29-8.57a8,8,0,0,1,3.43.43c1.4-6.48,10.22-3.08,17.57-3.86C125.14,106.1,146.84,105.58,162.05,105.77Z" style="fill:#414042;fill-rule:evenodd"/><path d="M264.51,122.92c-.68-5-2-9.3,1.29-11.58,9-6.29,16.12,12,6.86,14.15C269.07,126.31,266.91,124.23,264.51,122.92Zm3.43-1.29h3.86c.7-1.52.57-4.1-.43-5.15h-1.28C270.56,119.39,269.5,120.75,267.94,121.63Z" style="fill:#414042;fill-rule:evenodd"/><path d="M572.33,113.06c14.52-4.27,5.94,24.49-3,15.43C565.42,124.53,568.15,114.28,572.33,113.06Zm0,12c1.52.21,2.3-2.52,1.28-3.43C572.64,122.2,571.07,123.59,572.33,125.06Z" style="fill:#414042;fill-rule:evenodd"/><path d="M258.51,126.77c-3.22,9.93-13.7,12.6-18.43,21,3-.21,6.32-3,9-.86,1,7.2-14,12.21-18.86,6.86.2-4,2.23-7.55,3.85-10.72,1.4-2.72,2.84-7,6.44-7.71-.08,2.93-1.77,4.23-2.15,6.86C245.46,139.44,250.47,128.6,258.51,126.77Z" style="fill:#414042;fill-rule:evenodd"/><path d="M612.62,154.21c-8-3.2-11.35-10.94-18-15.43v-1.29c.35-.08.43-.43.86-.43C601.15,142.54,611.5,145.6,612.62,154.21Z" style="fill:#414042;fill-rule:evenodd"/><path d="M209.64,158.07c-5.84.26-5.09-6.06-10.72-6-.89,2,3,4.93,1.72,7.29-4.71-.87-5.29-5.86-7.72-9-2.63,3-1.33,9.59-3.43,12-2.44-1.47-1.77-17.63,0-20.15,4.44-6.32,11.33,3.45,14.58,6.43C206.83,151.18,213.87,153.41,209.64,158.07Z" style="fill:#414042;fill-rule:evenodd"/><path d="M74.6,141.78c-6.33,4-5.57,15-13.29,17.58-.15-7.91,5.54-13.57,10.28-18C72.73,141.35,74,141.19,74.6,141.78Z" style="fill:#414042;fill-rule:evenodd"/><path d="M653.35,180.36c-6.07,8.22-13.65,14.93-19.72,23.15,1.24,9.1,1.73,20-3.86,24.44,6.82,6.61,17.17,9.7,24,16.29,15.34-11.2,32.43,7.56,21,20.15-2.13,2.34-6.82,6.26-8.58,6.86-8.87,3-24.12-4.41-18.86-15.86-5.88-7.41-14.94-11.65-21.86-18-16.23,6.43-30.09-2.68-31.73-16.29-.9-7.49,2.57-10.25,6-14.58s6.47-9.12,12.44-10.71c4,.7,8-.4,12,.85,7.58-7.27,15.55-14.17,23.15-21.43-.91-9.06,9.76-23.12,21-18,2.41,1.1,5.4,5,6,8.15,1.46,7.57-3.61,19.3-9.86,20.58S656.85,182.76,653.35,180.36Zm2.14-8.57c1.7,3,3.71,5.73,7.29,6.86,4.63-1.59,7.66-11.52,2.15-14.58C660.57,165.44,657.3,167.87,655.49,171.79Zm-6.85,6.86h3c.09-.33,0-.85.42-.86-.14-1-.43-1.85-1.28-2.14C650.19,176.77,649,177.27,648.64,178.65Zm-41.59,39.87c5.47-2.11,6.33-11.1,9.43-14.15C612.74,208.49,609.09,212.7,607.05,218.52ZM618.2,207.8c5-2.84,8,2.09,7.29,6.43-.42,2.58-5.54,5.52-2.15,7.72,3.11-.18,4.64-5.65,4.29-10.72-3.29-1.86-4-6.3-8.58-6.86C619.75,206.24,617.17,207,618.2,207.8Zm-3.43,23.58c-1.36,0-2.93-1.9-3.86-.86C611.68,231.06,613.58,232.67,614.77,231.38Zm47.16,17.15c0,1.54-1.56,3.84-.43,5.14,4-6.74,8.85-.21,9,5.15C674.36,253.44,668.16,246.54,661.93,248.53Zm-6,10.29c.42-1.89,2.23-4.62,1.29-6.43C656.52,254,653.57,257,655.92,258.82Z" style="fill:#414042;fill-rule:evenodd"/><path d="M209.21,200.08c-5.88-3.89-1.92-18.75-5.57-25.29-.07-.5.09-.76.43-.86.87-.86.84.19,1.71.43,1.15,4.43,4.11,10,4.72,15.86C210.79,193.07,211.26,197.82,209.21,200.08Z" style="fill:#414042;fill-rule:evenodd"/><path d="M55.73,176.08c-4.47,7.51-1.79,20.64-3,29.58-2.55.48-3.94-2.38-4.29-3.86-2.13-9.05,2.52-21.47,6-26.15C55.14,175.53,55.18,176.05,55.73,176.08Z" style="fill:#414042;fill-rule:evenodd"/><path d="M206.64,213.8a60.11,60.11,0,0,1-10.72,24.44c-2.12,2.86-4.86,9.15-9.43,6-2.09-4.78,6.59-8.91,10.72-14.15s4.28-12,8.14-16.29Z" style="fill:#414042;fill-rule:evenodd"/><path d="M53.16,223.66c.69-.12.74.41,1.29.43-.09,7.19,6.09,12.35,3.85,18.86C53.36,240,52.52,230.76,53.16,223.66Z" style="fill:#414042;fill-rule:evenodd"/><path d="M69.88,237c1.49,5.39,2.46,16.4-.43,21-3.18,1.15-8.37-1.79-12.86-3.43-3.89-1.42-9.6-2.34-8.15-6.43,3.63,2.24,8.26,3.46,13.72,3.86.18-2.89-3.61-3.15-2.14-6,3.35-.5,4,1.66,5.57,3C68.44,246.37,64.88,237.38,69.88,237Z" style="fill:#414042;fill-rule:evenodd"/><path d="M150.91,247.67c-2.17,2.44-4.65.3-7.29,0-13.54-1.55-32.76,1-47.16.43-4.58-.19-8.76-1.17-11.58,2.14C87.55,259,86.39,270,87,281.54c.4,7.29,2.5,13.16,1.71,19.72,1.81,2.79,5.85.92,6.43,4.28,1.36,7.75-12,2.95-13.29,0-1.35-3.18-.24-7.28-.43-11.57-.39-9.38,1.54-20.76,1.29-29.15-.11-3.83-3-11.92-1.29-15.86,1.84-4.27,10.36-3.42,17.58-4.29,4.58-.56,8.79-2.5,13.29-3.43,10.08-2.08,25.38-2.52,34.3.86C148.9,243,151.72,244.06,150.91,247.67Z" style="fill:#414042;fill-rule:evenodd"/><path d="M161.62,248.1c-.6-5.47-7.75-2.11-8.57-6.86.46-.11.29-.85.86-.86,2.26-1,5.49,1.58,9.43,1.72,2.71.09,6-1.19,6.86,1.71C171.3,247.6,166.21,250.33,161.62,248.1Z" style="fill:#414042;fill-rule:evenodd"/><path d="M169.77,252c.79-.93.39-3,2.57-2.58,1.19,15.74,2.43,35.18.43,52.31-.85.69-3.12,1.38-4.29.43-2.16,6.5-9.6,3-17.57,3.85a492.09,492.09,0,0,1-54,2.15c1.87-2.77,6.19-2.49,9.43-3,5.92-.94,11.78-2.49,18.86-3,6-.44,12.37.39,18.44-.43,7.95-1.08,15.77-3,23.15-1.72.24-5.58,2.88-12,1.71-16.72-.69-2.78-5.42-5.62-7.71-7.71a41.08,41.08,0,0,0-8.58-6.44c-7.61,3.85-14.13,11-24.43,10.72-4.06-3.72-12.38-6.34-18-9.86-4.31,3.42-9.14,6.38-13.72,10.29-2.52,2.16-4.45,4.9-7.72,6,1.66-8.64,12.07-12.21,16.3-19.72-1.66-3-4.28-5-7.29-6.86-2.61-1.63-7-2.36-7.72-6,7.82.27,12.59,6,18.43,9.86,6.29,4.14,13.59,6.27,21.44,9a6,6,0,0,1,2.14,3c7.24-1.2,11.06-5.81,16.29-9,.93.07.2-1.52.43-2.14C155,265.3,162.88,243,169.77,252Zm-15,15c5.42,2.16,9.29,5.86,14.15,8.58-.4-7.88,1.45-14.92.43-22.73C166.71,259.76,158.92,261.55,154.76,267Z" style="fill:#414042;fill-rule:evenodd"/><path d="M691.51,273c4.16,5.34,11.1,13.56,8.14,21.87-1.86.45-3.52-2.08-4.29-3.86C693.2,286,690.41,276,691.51,273Z" style="fill:#414042;fill-rule:evenodd"/><path d="M707.8,339c-4.67-1-2.72-7.43-3-12-.3-4.78-1.62-9.13-2.15-12.43-.07-.5.1-.76.43-.86.88-.86.84.19,1.72.43C706.41,320.26,712.13,331.89,707.8,339Z" style="fill:#414042;fill-rule:evenodd"/><path d="M126.47,323.12c-2.86,6.71.59,19.74-7.72,21,.24-7.21,2.5-16.06,6-21.44C125.52,322.64,125.66,323.22,126.47,323.12Z" style="fill:#414042;fill-rule:evenodd"/><path d="M705.65,346.7C719,343,717,361.08,709.51,363.42c-3,.93-8.92.05-10.29-3.86C697.26,354,701.48,347.85,705.65,346.7Z" style="fill:#414042;fill-rule:evenodd"/><path d="M616.05,453.45c-.2,5.45,5.79,9.75,2.15,14.58-7.62-.19-12.41-6.68-16.29-12a11.25,11.25,0,0,1-5.15-1.28c-8.08-4-19.45-13.08-24.43-21.44-2.94-4.92-5.05-12.89-5.15-19.29-.35-23.88,17.07-38.92,36.44-44.16-.55,2.32-3.39,2.92-5.14,3.86-8,4.27-17.34,12.66-21.44,21.44-4.94,10.56-3.74,23.79.43,35.15a44,44,0,0,0,24.44,20.15c2.33,3.95,5,7.61,9.43,9.43-.58-2.25-1.47-5.61-.43-8.15,35.91.52,84.08,5.8,99.89-20.14,3.82-6.27,8.73-20.13,6.86-28.73-2.42-11.08-10.2-20.14-19.29-25.29-4.85-2.75-13-4.46-20.58-6-7.91-1.6-16.27-3.35-22.72-3.43-3.75-.05-7.82,1.71-11.15-.86-.12-1,.1-1.61.86-1.72,22.57-3.14,52,1.58,63.87,12.87,5.88,5.58,13.41,15.54,14.58,24.43,1.5,11.42-2.65,24.54-7.29,32.16C699.19,462.51,652.46,461.2,616.05,453.45Z" style="fill:#414042;fill-rule:evenodd"/><path d="M626.77,367.71c-6.59-.65-13.81,3.68-18.43.86-.22-3.22,5.2-2.91,9-3C620.8,365.48,626.75,364.43,626.77,367.71Z" style="fill:#414042;fill-rule:evenodd"/><path d="M114.89,367.28c.7-.12.74.4,1.29.43-1.14,13.53.51,27.55,0,42.87-.13,3.77-.82,10.81-4.72,9.86-3.17-.78-2.44-14.43-2.14-18.86C110.09,390.16,113.28,375.73,114.89,367.28Z" style="fill:#414042;fill-rule:evenodd"/><path d="M457,434.16c-7.91,2.62-19.65,1.17-28.29,1.28,4.48-4.8,15.92-2.65,23.58-4.28,2.5-17.44,1.76-36-.43-52.73-21.39,4.93-45.91.24-70.31,3-2.18,8,2.3,18.64-.86,24.86-4.28-.83-2.33-8.11-2.57-12.86-.26-5.31-3.29-13.48,0-16.72s17,.11,24.44-.43c2.61-.19,5.37-1.07,8.14-1.28,8.08-.63,17-.36,22.72-.43a70.8,70.8,0,0,1,14.15,1.28c4.06.72,7.77.14,9,3,.41,6.44,1.69,13.65.43,20.15-.22,1.15-1.17,2.6-1.28,3.86C454.8,413.08,459.35,424.06,457,434.16Z" style="fill:#414042;fill-rule:evenodd"/><path d="M428.71,383.14c.5,9.11,1.39,18.41,2.14,30.87.22,3.68,1.62,12.6-2.14,12.86-5.26.36-2.35-12.23-2.15-16.72.37-8.1.61-16.28-.42-24-11.83,6.19-18.51,17.5-28.3,25.72.59,2.77,4.41,4.36,3.43,7.29-1.67-1.54-8.87-4.34-9.43-7.29-.87-4.55,9.93-10.51,15.43-15,7.6-6.2,11.85-11.08,17.58-14.15A6.73,6.73,0,0,1,428.71,383.14Z" style="fill:#414042;fill-rule:evenodd"/><path d="M484,388.29c-1.17,6-6,13.42-6.86,21.86-.42,4.21.27,9.27-4.29,10.29-3.69-4.75-.62-11.57,1.29-16.72,2.26-6.08,4.84-11.44,8.15-15.43Z" style="fill:#414042;fill-rule:evenodd"/><path d="M348.11,397.29H349c.81,5.8,3.92,11.57,6.43,19.29,2.36,7.25,6.7,18.62-2.14,19.72-.16,7.65-1.87,15.14-3,22.72-1.43,9.56-1.81,20.16-5.14,27.44,2.9,7,7.93,15.69,12,23.58,1.13,2.19,3.43,5.66,3.43,8.14,0,3.06-2,4.49-1.71,8.15.31,4.47,2.62,11,3.43,18.43,1,9,1.82,24.54-6,17.15.47,5.33-.61,9.11-4.29,10.29-6,19-12.09,39.17-17.15,60.45-1.66,7-4.67,14.32-4.71,21-.06,8.17,3,17.15,3.85,26.15.45,4.64.63,9.06,1.29,13.72,1,7.23,3.28,14.48,1.29,22.72-2.74-.61-3.76-3.81-5.15-6s-3.52-4.23-4.71-6.44c-12-22.19-2.69-58.1,2.57-81.45-3.68-3.32-9.76-4.24-13.72-7.29-1.69,14.33,1.59,31-1.29,44.16-3.4-2.45-1.91-7.35-2.14-10.72-.72-10.48-4-22.83-3.43-35.15.45-9.07.19-21.71,1.29-32.16.76-7.3,2.41-14.56,3.43-21.86,2.14-15.34,2.25-30.52,6.43-44.16,2.08,2.48.49,6.92.42,9.86-.16,7.17,1.11,19.43.43,29.58-.5,7.51-2.28,15.27-3.43,22.3-1.33,8.17-1.37,15.83-1.71,23.58-.17,4-1,7.25.43,9.86,2.43,4.3,10.43,3.19,14.57,6.43,4-13.65,7.75-26,13.29-38.16,1.76-3.82,4.87-7.6,5.58-11.14.81-4.1.17-9.11.43-13.29.27-4.49.55-8.77.85-12.87.59-7.81,2.19-18.59,1.29-25.72-.29-2.25-2-5.44-3-8.14-2-5.46-4.38-10.39-6-16.29-.79-2.86-2.2-6.05-2.58-8.58-2.34-15.74,7.21-29.5,9-41.58.18-1.76-1.41-1.74-.86-3.86,5.61-11.5-1.74-27.72-1.72-39A3.09,3.09,0,0,1,348.11,397.29Z" style="fill:#414042;fill-rule:evenodd"/><path d="M421,399.86c.76,13.25,2.32,25.69,3.86,38.16,2.58-.28,4.45-1.27,7.72-.86,2.36,1.35,3.22,4.21,3.85,7.29,5.4-4.5,13.3-.67,12.87,6.86,2.43-.29,3.89.39,5.57.85,1.45,1.75,2.75,5.26,1.71,8.15,5.28,5.72,10.6,11.41,19.72,13.29-2.45-12.85-3.18-29.68-4.28-42.44,4.14,4.86,4.7,12.45,6.43,19.72,1.95,8.2,5.21,16.27,4.29,25.29,1.89,2.35,4-.12,6.43,0,6.92.35,20.57,14.07,23.15,20.58,1.13,2.88,1.72,7,.42,9.43-4.39,1.29-5.19-3.23-6.43-6-3.7-8.28-9.62-16.7-17.14-21.44-1.66-.08-.46,2.69-1.29,3.43-1.62-.9-2.68.17-4.72,0,3.93,6.4,11.06,13,9.86,25.73-1.15,12.23-3.69,21.65-17.14,21.43,4,4.29,13.42,7.06,20.57,6.86,3.09-.08,6.93-1.69,11.58-2.57,5.1-1,13.36.25,14.58-3.86,1-3.39-.64-11-.86-15a213.65,213.65,0,0,0-6.86-42.87c-1.69-6.63-4.95-12.94-5.15-18.43s1.45-11.79,1.72-17.58-.75-10.91.43-15.86c2.76,1.65,1.8,5.6,2.14,8.57.78,6.84,2.22,14.58,1.72,23.15-.39,6.57,1.85,9.91,3.85,16.3a185,185,0,0,1,7.29,39.44c.29,4.25-.15,7.67-1.71,10.71,4.54,3.3,2.06,13.33,0,17.58a10.72,10.72,0,0,1-4.29.43c-1.73,4.08-7.36,4.3-13.72,5.57-4.43.89-8.17,2.5-11.14,2.15-3.93-.47-6.72-4.08-10.29-3.86-3.77,11.17-.41,19.21,3.43,30,4.34,12.23,5.72,24.21,8.57,37.72,1.84,8.74,4.92,17.67,1.71,24.87-7.13-2.3-7.1-13.06-9-22.29-2.56-12.46-4.61-25.28-7.29-38.16-1.26-6.09-4-11.38-6-16.72s-1.47-13.15-1.71-19.72a46.13,46.13,0,0,0-4.72-3,3.24,3.24,0,0,1,.86-3c-3.69-2.6-8.76-3.82-12-6.86-9.39-3.19-14.68-11.4-21.86-19.29-2-2.22-4-4.58-7.29-8.58-2.21-2.69-5.87-9-.85-9.86,2.5-.4,6.11,4.92,8.14,7.29,5.54,6.45,9,10.21,14.15,16.72,2.15,2.7,4.28,6.72,6.86,8.58.75.54,2.62.69,4.28,1.71,3.85,2.37,7.11,6.7,15,4.29,6-1.83,7.29-10.6,8.57-18,1.81-10.4-3.64-15.79-6-23.15-7.65-5.49-16.66-9.63-23.58-15.86-.17-2,.91-2.82-.43-3.86-.41,11-4.85,20.27-15,20.15-3.21-3.12.92-6.45,3.86-7.29-.34-.94-2-.55-2.15-1.71-3.56,1.43-4.26,7.06-9,6,.42.58,1.45.56,1.72,1.29-1.86,2.81-7.1,1.81-10.29,1.28-2.08-.08-.81,3.2-3.43,2.57-.46-8.26-6.25-11.18-11.15-15-.55-2.12,1.08-2.07,2.14-2.57a16,16,0,0,1,2.15-6.86c2.38.47,1.62,7.14-.43,7.29,1.4,2.6,4.62,3.38,6,6,2.33-3.85,9.22,1,13.29-1.72-1.3-8.32.36-23.87-3.43-32.15a9.92,9.92,0,0,0-6.43,1.29c-2.4,8.76.75,22.19-1.29,29.58-6.52.12-4.08-8.27-3.85-13.29.26-5.74.13-11.72.43-16.29.16-1,1.71-.58,2.14-1.29-6.72-9.24-3.68-24.59-6.86-36-7,4-6.77,16.46-6.86,25.72,0,4.83,1.28,9.77,1.29,14.58,0,8-2.29,14.85-3,21.43-.76,1.1-1.87,1.85-2.58,3,2.27,2.79.22,6.95,1.29,9.86,1.15,3.12,4.67,2.73,6.86,4.72.35-.95-.34-3.58,1.28-4.29,1.4-.57,4.34-.8,5.15.43.57,2.43-1.45,2.27-2.57,3,.47,3,4.44,2.42,5.57,4.72-6.83,2.27-14.67-1.53-19.72-3.86-.72-3.24-2.47-8.41-3-12.86-.12-1,.63-2.16.43-3-.4-1.64-1.58-2-1.72-3.43-.56-5.94,5.24-11.58,6-17.15.4-2.93-.85-6.39-.85-9.43C402.52,419,403.75,397.42,421,399.86Zm16.29,70.31c1.83,0,3,.72,5.15.43,2-2.73,2.6-8,2.14-12.43-.36-3.49-1.36-7.73-2.57-9.87C436.14,449.6,438.36,462.67,437.28,470.17Zm12.86-12.86c-.39.75-1.5.78-2.14,1.28a66.39,66.39,0,0,1-3,14.15c1.71-.14,2.38.77,4.29.43C450,468.85,451.61,461,450.14,457.31Zm-18.43,21a13.69,13.69,0,0,0,6.86-5.14,1.89,1.89,0,0,0-1.72-.86C436.12,475.3,433,475.85,431.71,478.31Zm-5.15.43a6,6,0,0,0,2.15-2.14c-2,0-4.19.19-5.58-.43C423.5,477.8,424.82,478.49,426.56,478.74Z" style="fill:#414042;fill-rule:evenodd"/><path d="M649.49,402.86c11-1.75,12.62,10.1,5.58,15.44-2,1.49-7.32,4.32-11.15,3.43-6.94-1.63-3.55-12.92-.86-15.87C644.49,404.29,646.57,403.33,649.49,402.86ZM647.35,411a12.74,12.74,0,0,0,2.14,4.28c2.45-.69,3.75-2.54,4.29-5.14-.33-.09-.5-.36-.43-.86A5,5,0,0,0,647.35,411Z" style="fill:#414042;fill-rule:evenodd"/><path d="M686.36,403.29c12.13-2.09,10.74,17.29-1.28,15.86C676.92,418.19,679,404.56,686.36,403.29Zm-3.43,9c.23,5.25,7.31,2.26,6.86-1.71C687,407.91,686.16,412.76,682.93,412.29Z" style="fill:#414042;fill-rule:evenodd"/><path d="M611.34,405.86c5.34-1.15,10,3.31,9.86,8.58-.22,9.24-16.75,13.1-17.58,2.57C603.34,413.42,607.37,406.72,611.34,405.86Zm3,10.72c1.35-1.4.87-4.47-1.72-4.29C612.55,414.37,613.5,415.42,614.34,416.58Z" style="fill:#414042;fill-rule:evenodd"/><path d="M380.26,411.86h1.29c.36,7.23.38,15.58.43,21.87,4,1.26,13-2.82,15.86,1.29-.87,6.51-12.39,3-17.58,2.57C376.25,431.73,379.2,419.22,380.26,411.86Z" style="fill:#414042;fill-rule:evenodd"/><path d="M114.47,429.44c11.16-2.28,9.08,16,1.71,17.15C106,448.12,106.31,431.11,114.47,429.44Zm1.28,11.15c1.71-.25,1.4-3.08.43-3.86C116.16,438.14,115.46,438.86,115.75,440.59Z" style="fill:#414042;fill-rule:evenodd"/><path d="M172.77,487.32c21.16-10.54,42.17,22.58,25.72,35.58-3.1.23-5.62,3.24-8.57,3.43-2,.13-4-1.07-6-1.29-5.25-.55-11.33.72-17.15.43-4.28-.21-8.34-1.23-12.44-1.28-11.09-.16-22.73,1.2-34.29,1.71-18,.79-36.05.25-53.16-.43-3-3-3.46-13.81-1.29-19.72,3.32-9,17.82-21.27,31.3-20.15,6.82-6.62,5.65-23.47,16.72-24.43-.71,4.66-4.27,7.6-6.43,11.14s-4,7.08-6,11.15c.2,2,.57,2.86,0,4.71-5.13,3.55-12,1-17.58,3.43-6.37,2.84-12.83,12-12.86,18.44,0,3.91,2.46,5.5,2.57,9.86,15.55-.89,35-.82,51-1.72-.1-4.14.13-10.09,0-12.86-1.78-1.22-6.36.35-8.15-.85,3.8-10.21,12.33-15.68,18-24,4.32,2.51,7.77,6.31,11.14,9.86,3.15,3.32,8.2,6.65,8.15,12.86-1.07,1.79-4.79.93-6.86,1.71-1.14,3.44.24,9.39-.86,12.87,11.62-1.3,25.79-.44,37.73-1.29,3.56-.26,7.62-2.2,10.71.43,6.71-7.42.63-22-7.71-26.15-6.19-3-12.05-1.21-18,.43-6.82-17.37-13.7-39.61-39.44-36.87-2.65.28-4.3,1.7-6.86,1.28,3.46-5.06,17.08-6.51,24-4.71C160,454.45,170.45,472.8,172.77,487.32Zm-40.3,12c1.86-.73,3.37-2,5.57-1.28C137.75,493.11,132.9,496.14,132.47,499.32Z" style="fill:#414042;fill-rule:evenodd"/><path d="M742.09,549.91c-2.08-2.71,1-5.56,1.29-8.58-34.34.53-71.59,4.3-85.74-20.14-3.43-5.92-7.84-20-5.58-29.16,2.09-8.44,11.85-20.61,20.15-24.86,9.13-4.67,22.59-6,36-6.43,3.72-.12,9.25-1.35,12,2.14-2.56,2.67-8.82,1-12.86,1.29-16.23,1.16-32.84,5.89-42.44,13.72-2.67,6-7.78,9.72-8.58,16.72-1.55,13.62,8,29.76,16.29,34.72,6.45,3.85,16.22,6.23,24.87,6.86,17.31,1.26,36.89-3.8,53.59-.43,1.26,3.12-1.86,4.8-2.58,7.29,5.14-1.06,5.45-5.81,8.58-8.15,2.31-1.72,5.74-2.3,8.14-3.85,11.08-7.18,20.49-24.08,13.29-42.45-5.19-13.26-21.13-20.43-40.29-22.29-2.93-.28-10.64,1.09-11.15-3-.28-2.2,1.46-2.95,3.43-3.43,6.53-1.59,16.4.64,22.29,3,16.75,6.71,34,18.18,33.87,40.3-.06,11.22-6,20.22-12.43,26.15a48.42,48.42,0,0,1-16.72,10.29C753.23,543.62,749.82,550.76,742.09,549.91Z" style="fill:#414042;fill-rule:evenodd"/><path d="M711.66,494.18c7.25-1.92,13.65,5,12.43,12C721.88,518.93,694.72,498.66,711.66,494.18Z" style="fill:#414042;fill-rule:evenodd"/><path d="M680.79,494.61c2.33-.65,4.2-.48,5.57.42,1.2.8,3.47,5.63,3,8.58C687.27,516.89,666.43,498.58,680.79,494.61Z" style="fill:#414042;fill-rule:evenodd"/><path d="M746,496.75c4.17-.79,9.76,4.1,9,9.86-1.13,8.63-15.05,5.59-15-3A6.89,6.89,0,0,1,746,496.75Z" style="fill:#414042;fill-rule:evenodd"/><path d="M49.3,520.76c-1.14,1.43-1.93,3.21-3.43,4.28-3.67.44-8.09-.41-12-.43C21.67,524.56,7.8,527.24,0,522.9c.11-8,2.64-13.65,9.43-15,3.78-13.82,25.36-13.19,29.58-.43C46.68,507.66,48.62,513.58,49.3,520.76ZM29.15,500.18c-8-3-13.53,3.65-15,10.72-6.09.2-10.49,2.09-9.86,9,5.85,0,11.23.49,16.72.86v-6c-1.55.26-2.42-.15-2.58-1.28,2.33-3,2.91-7.68,7.29-8.58,1.74,1.84,1.9,5.25,3,7.72-2.61,2-2.25,4.61-2.57,8.58a135.85,135.85,0,0,0,17.58-1.72c1.3-5.4-3.4-9.22-7.72-9C33.4,507,33.09,501.63,29.15,500.18Z" style="fill:#414042;fill-rule:evenodd"/><path d="M243.51,509.18c1,.22,2.82-.3,3.85,0,3.74,1.08,11.74,11.28,8.15,15.43-2.37,2.74-17.49,2.14-24,2.15-9.2,0-17.71-1.31-23.58-1.72-1.58-10.3,5.5-16.47,14.58-16.29C225.23,500.8,242.4,498.44,243.51,509.18Zm-18.87,4.72c-5.14-5.26-12.59,1-12.86,7.29,5.61,1.75,12.59,1.09,19.29.85,1.14-3.13-2.09-1.91-2.14-3.86,1.44-1.84,2.07-4.49,5.14-4.71a6.88,6.88,0,0,1,3,5.57c-1.41.45-3.4.32-2.58,3,3.76-1.24,9.27-.73,12.44-2.57-1-7-9.25-6.76-11.15-12.86C228.06,505,229.13,512.24,224.64,513.9Z" style="fill:#414042;fill-rule:evenodd"/><path d="M117.47,531.05c.4,3.74,1.23,7.05,1.28,11.14C113.91,543,113.2,531.63,117.47,531.05Z" style="fill:#414042;fill-rule:evenodd"/><path d="M640.06,546.05c-14.88,1.41-26.89,6.21-33,17.58-9.48,17.61,9.75,26.1,18.44,35.15,1-.91,1.06-2.65,3-2.57,7.24-.42,15,1.66,22.72.43,1.41-.23,2.73-1.28,4.28-1.72,9-2.53,18.41-1.22,24.87-6,7.52-5.56,12-15.65,6-25.72-3.59-6.05-9.61-9.13-17.15-11.58-7.21-2.34-15.29-3.6-23.15-5.14,4.44-2.2,9.68-1.53,14.15-1.29,18.51,1,33.83,10.19,35.15,27a23.06,23.06,0,0,1-1.28,9.86c-7.54,19.51-38.54,22.08-63.88,16.72-1.34,2.42,2.63,4.78.86,7.72-6.78,2-9.85-4.56-13.72-8.15-5-4.61-11.75-7.64-14.58-13.29-2.19-4.37-3-11-3-15,.19-13.71,15.5-24.41,30.44-25.72C633.15,544.08,637.55,543.18,640.06,546.05Z" style="fill:#414042;fill-rule:evenodd"/><path d="M120,557.63c1.21,14.08,8.22,24.64,9.86,36.86-6.65-1.92-8.14-10.19-9.86-19.29-1.27-6.74-2.77-14-1.29-17.57Z" style="fill:#414042;fill-rule:evenodd"/><path d="M649.49,567.91c10.47-1.54,4.62,13.5-3.43,11.15C640.4,577.41,645.07,568.57,649.49,567.91Z" style="fill:#414042;fill-rule:evenodd"/><path d="M667.5,575.63c-2.25-8.33,8-10,9-4.29A5.22,5.22,0,0,1,667.5,575.63Z" style="fill:#414042;fill-rule:evenodd"/><path d="M625.06,569.63c4.59-1.44,6.77,1,7.28,3.43,1.66,8-10.29,9.71-11.14,2.57C620.78,572.12,622.45,570.45,625.06,569.63Z" style="fill:#414042;fill-rule:evenodd"/><path d="M377.69,585.92c6.81,3.78,15.57,6.43,24.44,8.15,12.92,2.49,28.48,1.74,37.3,7.71-2.41,3.07-8.47,2.86-14.15,2.57a91.27,91.27,0,0,1-26.58-5.57c-8.15-3-16.33-6.26-21-11.14Z" style="fill:#414042;fill-rule:evenodd"/><path d="M129.47,597.07c7.49-2.52,10.6,11.18,4.72,14.14C124.71,616,122.51,599.41,129.47,597.07Zm-1.29,10.29c1.53,2.33,6.27-.86,3.43-2.58C131.47,606.64,129,606.17,128.18,607.36Z" style="fill:#414042;fill-rule:evenodd"/><path d="M659.35,608.21c1.88,4.19,4.1,12.4,2.58,17.15-3,0-1.3-4.7-3.43-5.57-1.67,2.76-2.69,6.17-4.72,8.57-.57,1.72-.11,4.47-3,3.86-.73-5.62,3.08-10.33,3.86-15.86-3.43.71-3.68,4.61-7.72,4.71,1.77-6,7-8.39,10.29-12.86Z" style="fill:#414042;fill-rule:evenodd"/><path d="M137.19,614.64c.69-.12.73.41,1.28.43,6.82,13.33,16.07,24.24,24.44,36,1.07-2.5,1.54-5.6,3.86-6.86,6.53-.25,4.38,19.09.43,19.72-1.72.28-3.49-1.82-5.15-2.57-2.73-1.23-10.3-1.76-11.57-5.14.68-2.18,3.39-2.33,6.43-2.15C150.53,642.74,140.56,629,137.19,614.64Z" style="fill:#414042;fill-rule:evenodd"/><path d="M458.29,618.5c-1.33,6.8-8.16,10.79-13.72,15-14.46,11-35.58,25.61-57.45,27.86-3.2.33-10.19,1-11.57-2.14,17.61-.79,34.14-10,47.16-18,12.26-7.56,22.7-18.48,34.72-23.15C457.78,618.15,457.86,618.5,458.29,618.5Z" style="fill:#414042;fill-rule:evenodd"/><path d="M240.93,629.22h1.29c.55,4.34,2.48,13.89-.86,16.72C237.68,643,240.36,633.45,240.93,629.22Z" style="fill:#414042;fill-rule:evenodd"/><path d="M648.64,639.94c0,4-2.92,7.42-4.72,11.14s-3.28,7.81-5.14,11.58c-3.41,6.89-7.91,15.6-16.3,17.15-3.35-3.65.62-7.78,3-10.72,6.82-8.43,14.63-19.61,21-27.87.31-.39.59-1.2,1.29-1.28Z" style="fill:#414042;fill-rule:evenodd"/><path d="M266.66,642.94c-1.83,3.63-4.49,8.62-9,8.14A12.8,12.8,0,0,1,266.66,642.94Z" style="fill:#414042;fill-rule:evenodd"/><path d="M500.3,642.94a2,2,0,0,0,1.29.43c6.25,15.21,7.81,40.09,6.86,63.87-.35,8.69-.42,19.27-7.29,22.3-3.07-25.6,3.23-60.29-1.72-85.32C499.6,643.66,500.2,643.55,500.3,642.94Z" style="fill:#414042;fill-rule:evenodd"/><path d="M222.5,649.8c-3.36-.5-4.42-3.29-6.43-5.15-.07-.49.09-.76.43-.85C218.81,643.6,223.64,646.54,222.5,649.8Z" style="fill:#414042;fill-rule:evenodd"/><path d="M568.47,676c3.55.67,10.44,1.42,11.14-2.14,6.83,3.17,23.52-3.51,23.58,6.43a2.13,2.13,0,0,0-1.28,1.28c-6.42-1.09-13.87-5-21-2.57-.47,9.94,1.5,26.41-.43,38.15,4.17.29,11.78-1.9,17.15-.42,1.11-5.58,2.7-11.59,3.86-17.58s.93-12.71,3.43-18c1.53,3,1.65,8.58,1.71,13.29.12,9.4-.74,20.68-3.86,26.58-2.08-.63-4.27.85-6.86.86-3.29,0-7.5-1.7-11.57-1.71-3.33,0-6.59.84-9-1.29-1.8.08-1.39-2-2.15-3-5.84.32-11.51-2.65-16.72-2.14-1.39.13-2.57,1.18-3.86,1.28-6,.49-13-2.08-13.71-7.29-.25-1.76,1-3.43.85-4.71-.34-2.31-3.08-2.69-3.43-5.58-.31-2.6.67-3.44,1.72-5.14.46-.76,3-2.86,3-3.43.06-1-2.91-3.36-3-4.72-.46-6.8,9.51-10.49,16.29-9-1-5.55.38-18.57,6-22.29,2.29-1.51,7.2-2.4,9.43.86C573.81,659.58,564.89,667.66,568.47,676Zm-8.58-.86c-3.38,4.88-15.43.39-16.72,8.15,5.52,3.38,3.07,9-.43,12.86,4.86,1.9,5.32,6.55,2.58,11.14,7.39,4,17.93,2.63,28.29,2.15,1.07-9.94,2.73-19.28,3.86-29.15-2.72-1.14-6.69-1-9.43-2.15-4.7-4.59-1.51-15.49-3-21.43C560.33,659.78,560.1,668.79,559.89,675.09Z" style="fill:#414042;fill-rule:evenodd"/><path d="M250.79,659.23c-3.94,11.63-7.84,23.3-13.29,33.44-3.34-.09-4.55-2.31-6.86-3.43-3.27,1.7-6.42,4.81-10.28,7.72-4.83,3.63-9.73,10.41-15.87,6-2-1.41-6.55-7.06-6.43-10.29.15-3.78,6.52-7.3,9.43-9.43,4.14-3,7.65-4.69,9.87-8.58-7.37-9.5.62-10.61,12.86-12.86A135.58,135.58,0,0,1,250.79,659.23Zm-26.15,21.86c2.36-1.07.9-6,1.72-8.57-1.22-.07-1.79-.79-3-.86C221.75,675.81,225.57,676.41,224.64,681.09Zm-8.57.86c-4.27,2.26-8.29,8.53-5.57,15C216.64,695.94,217.91,687.44,216.07,682Zm-12,10.72c.14,1.57,1.46,2,2.57,2.57-.42-1.75,1.81-4.78,0-5.14C206,691.14,204.33,691.22,204.07,692.67Z" style="fill:#414042;fill-rule:evenodd"/><path d="M272.23,671.23c-3.79.6-11.27,1.31-13.29-1.28C261.06,667.53,271,667.61,272.23,671.23Z" style="fill:#414042;fill-rule:evenodd"/><path d="M209.64,670.8c-.53,3.33-5,.89-6.86.43C202.87,667.52,207.76,670.14,209.64,670.8Z" style="fill:#414042;fill-rule:evenodd"/><path d="M587.33,690.53c-2-7.74,6.8-8.52,8.15-3.86C597,692.07,591,694.71,587.33,690.53Z" style="fill:#414042;fill-rule:evenodd"/><path d="M252.08,684.09c2.81,1.24,5.26,5,4.29,8.58C253.34,691.65,251.67,687.14,252.08,684.09Z" style="fill:#414042;fill-rule:evenodd"/><path d="M232.36,696.1h1.71c.24,2.54,1.78,5.85-.42,7.29C231.62,702.74,231.51,698.22,232.36,696.1Z" style="fill:#414042;fill-rule:evenodd"/><path d="M387.12,145.64c-10.61-9.78-15.6-24.13-21.86-38.16-2.07-4.63-3.62-10.06-6-13.72-.95-1.45-2.35-2.42-3.43-3.85a49.85,49.85,0,0,1-5.58-10.72c-1.53-3.83-3.24-8.45-2.14-12.44,3.47,1.56,4.93,8.77,7.72,12.44,4.29-6.57,8-13.68,12.86-19.72-9.88-13.55,2.83-32.21,17.15-32.16.72-4.65-.38-15.15-.86-20.15-8.14-1-14.81,2.27-20.15,6.44-4.71,3.67-10.76,9.59-12.43,14.14-1.6,4.36-1.34,10.39-2.15,15.44-.73,4.58-.47,10.44-4.28,13.29-4.78-4.12-2.7-12.11-1.72-17.15C345.48,33,347,27.38,349.4,23,357.49,8.15,371.52-1.91,395.27.31c5.42.5,10.15,3.05,15,6,9.69,5.87,19.51,11.89,21,25.29,3.07,27.48-7.73,46.27-15.86,64.31A191,191,0,0,1,401.7,121.2C398.16,130.67,393.5,139,387.12,145.64ZM371.26,45.32c-3.36,12.41,12.71,21.6,22.29,18,11.07-4.16,12.18-25.37,1.29-30-2.43-1-5.57-1.1-9-.43C378.71,34.27,373,38.93,371.26,45.32Zm-11.57,40.3c.53,6.84,7.65,11.16,10.71,16.72.83-14.61,7.14-23.73,12.87-33.44-6.14-1-9.1-5.2-13.29-8.15C367.58,68.67,359,76.5,359.69,85.62Zm17.57,16.29c7.82-3.13,5.88-15.83,5.58-25.29C379.59,83.66,377.66,92,377.26,101.91Zm2.15,7.29c-.85-.4-4.05.51-5.58.85,1.85,2.3,2.38,5.91,4.72,7.72C378.53,114.61,379.42,112.36,379.41,109.2Zm4.28,18.86c-.14-1.58.37-3.8-.42-4.72h-2.15C381.77,125.13,382.34,127,383.69,128.06Z" style="fill:#414042;fill-rule:evenodd"/><path d="M461.72,361.71c11.6,6.82,26.07,10.8,35.58,19.72,1.62.57,2.08-.18,3.43.85,4.94,9.69,13.76,19.91,12,33.44-4.39-.75-5.88-5.49-8.14-9-.9-1.4-2.59-2.15-3.43-3.43-2.75-4.17-3.52-9.76-6-14.15-3.4-6-8.46-8.72-13.29-13.29-11.6.55-18.06-7.62-27.44-10.71-3.58,2.51-7.78.95-11.57,2.14s-5.63,6.85-10.72,5.57c-.31-1.72,2.51-3.68,3.43-5.57-10.78-4.09-10.63-19.09-14.15-30.44-4.66,4.34-13.21,8.51-23.15,9-1.28,2.31-4.16,4.76-7.72,3.43-.42,9.16-.07,19.08-9,19.72-1.24.54,1.88,2.51-.43,3-1.48,1.46-3.43.56-4.71-.42a387.91,387.91,0,0,0-38.59,21.86C330.67,398,323.53,401,322,410.58c-.85,5.21.55,12.89.86,19.72.49,10.93-.63,23,0,33,.33,5.33,1.74,10.29,2.14,15,.46,5.5-.42,11.53-.86,16.72-.4,4.79.1,10.64-3.43,13.72-.87-12.6-3-26.69-1.71-41.58-2.92,11.37-4.46,24.12-6.43,36.44-2.74-3.65-1.94-10.24-1.72-15.44.39-8.9,1.75-18.41,0-26.15-1.46,14.56-2.54,35.16.43,48.88-5.21-1.9-4.86-10.3-5.57-16.29-1.28-10.87-2.71-22.27-2.14-35.16.69-15.83,3.07-31,5.14-45.87,2-14,8.38-26.32,11.57-39,1.67-6.61,2.53-15.18,3-21a52.16,52.16,0,0,0,0-7.29c-.77-11.44-4.07-23-5.58-34.72-2-15.85-6.85-35.29-2.57-52.31,1.35-5.35,5.66-12.37,9-17.57,7.49-11.65,12.08-20.76,24.87-27.44,3.8-2,4.82-2.92,9.86-3.43,3.26-.33,9.52.13,9,3.86-.48,3.48-3.26,1.44-6.43,2.14-4.1.91-7.67,5.68-10.29,7.72,4.69-.17,10.75-4.67,14.58-.43,1.58-2.84,2.63-6.22,5.57-7.72-.7-1.15-.59-3.12-2.14-3.43,2.69-4.66,9.51-5.83,15.43-5.57,16.71.75,29.93,14.52,41.59,20.58,1.76,3.93,4.08,7.6,6.43,12,2.12,4,5.9,7.57,6.86,11.58,2.18,9.15,1.85,18.32,4.71,27.44,3.79,12.07,7,29.65,9.86,43.29C456.82,335.49,459.53,348.75,461.72,361.71ZM377.26,217.23c5.51,4.36,13.88,5.85,19.29,10.29,0-3.17-4.43-5.92-2.14-8.57,2.5.07,1.51,3.63,4.29,3.43.08-2.58-4.85-6-7.29-6,.66.83.94,4.93-.43,5.15C386.34,219.52,383.46,212.86,377.26,217.23Zm-4.28,3c-2.67,1.2-3.63,4.09-6,5.58-.05,3.28,3.8,4.32,6,5.57,7.47,4.21,14.85,8.71,22.29,12.43C390.69,233.1,382.3,226.2,373,220.23Zm-24,26.15c2.17-4.11,5.67-6.9,8.57-10.29C353.11,237.66,349.8,242.64,349,246.38Zm12.43-6.86c-3.39,4.33-7.18,10.54-8.14,15.87,2.87-5.41,7.11-9.47,9.86-15C362.48,240.16,362,239.75,361.4,239.52Zm2.57,6c-6.44,13.27-14.17,27.55-17.15,42.87,2.75-4.87,5.49-9.88,9-15,5.16-7.53,13.77-15.5,9.43-27.86Zm18,4.28c-2.65-.49-3.83-2.45-6.43-3C375.7,249.52,380.16,250.2,382,249.81Zm-.86,25.73c-5.49-2.09-4.72-10.43-8.14-14.58-1.43,4.66-3.26,10.23-5.15,15.43-1.7,4.69-3.2,11.55-8.57,11.58,2.58-4.42,5.09-11.2,4.71-17.15-5.44,11.7-12.58,21.71-17.15,34.3,6.76,11.17,13.17,27.33,24.87,34.29,6.48,3.86,16,3.09,25.29,5.15,4.24-3.42,10.21-4.22,14.58-7.29,4.89-3.44,9.84-13.17,10.29-20.15.43-6.72-2.21-14.25-.43-22.29-4.64-6,4.27-22.78-3-30.44-2.09,1.82-1.54,4.65-.86,7.72-2.16,3.12-3.91,6.66-6.43,9.43-2.39-3.49,2.12-6.48,2.57-9.86-2.89-4.5-.36-10.43,3-12.44-6.46-2.92-5.15,8.67-9.43,10.72a73.08,73.08,0,0,0-5.57-9.43c-10.13-.3-17.65-3.21-25.29-6C377.5,261.73,380,269.84,381.12,275.54ZM336.54,334.7c-8.63-20.44-6.51-54.93-3.86-78.88-.27-.92,0-.82-.43,0-1.53,2.92-3.91,12.81-3,17.57-2.15,7.77-1.29,18.86-1.29,29.15,0,8-.6,16.16,0,23.58,1,12.28,5.63,24.12,6,35.59C336.81,354.59,336.68,343.54,336.54,334.7Zm114,23.58c1.48.81,2.71,1.86,5.15,1.71-1.18-10.26-4.19-18.68-6.86-27.44Q449.78,345.35,450.57,358.28Zm-107.17-21c-.34-1.06,1.55-3-.43-3C342.74,335.2,341.93,337,343.4,337.27Z" style="fill:#414042;fill-rule:evenodd"/></g></svg>