<svg xmlns="http://www.w3.org/2000/svg" viewBox="0 0 835.96 708.08"><title>b</title><g id="Layer_2" data-name="Layer 2"><path d="M325.87.44c1.44,3.48,3.22,11.87-.81,13.8-3.36,0-3.6-1.91-6.09-2-.23-3.88.71-6.59.41-10.55A6.29,6.29,0,0,1,325.87.44Zm-4.46,2c.34,2.9-.21,6.7,1.62,8.12,1.59-1.39.48-5.47.81-8.12C322.56,2,322.92,2.43,321.41,2.47Z" style="fill:#414042;fill-rule:evenodd"/><path d="M335.62,21.55c-.44-.66-1.5-2.79-.41-3.65-.45-.94-1.57.57-2-.81,1-1.86,5.7-11.37,8.53-11.37,2,0,4.77,4,4.87,5.68C346.79,14.57,340.66,21.92,335.62,21.55Zm.41-4.46c1.93-1.77,6.14-3.27,5.68-6.09C339,11.92,336.64,15.4,336,17.09Z" style="fill:#414042;fill-rule:evenodd"/><path d="M304.35,15.06c3.63.42,4.33,3.79,8.12,4.06-.47-3.19-3.12-4.19-4.87-6.09-1.36,0-2,2-3.25.81,1.67-8.06,12.6,1.73,12.18,5.28C315.79,25.43,304,20.42,304.35,15.06Z" style="fill:#414042;fill-rule:evenodd"/><path d="M551.66,28.46c-4.34,3.29-9.76-.09-14.21-1.63-4.82-1.65-9.56-3.91-14.22-4.87V20.74c.33-.08.41-.41.82-.4,4.18.22,10.55,1.62,15.43,2.84C544,24.3,549.89,25,551.66,28.46Z" style="fill:#414042;fill-rule:evenodd"/><path d="M314.91,35.77c-.19-8.23,2.47-13.59,7.72-14.62,13.8-2.71,15.27,17.65,4.46,20.71C321.39,43.47,317.3,39.61,314.91,35.77Zm4.06-.41c4.1,6.81,13.35-1.92,8.53-7.71C321.21,25.25,321.38,32.56,319,35.36Z" style="fill:#414042;fill-rule:evenodd"/><path d="M518.36,22.37c-2.05,11.89-6.6,21.28-9.74,32.08,8.78-.69,14.16-4.79,22.74-5.69-4.75-6.51-10.61-14-12.59-21.93,6,3.82,7.61,11.06,12.59,15.84s10.66,8.26,15,13.4a6.45,6.45,0,0,0,2,4.06c6.62-.37,13.58-2.81,19.09-.81,4.56,4.92,7.47,11.48,10.15,18.27,4.37-7.13,6.41-16.6,9.75-24.77-4.48,1.52-12.8,4.75-18.28,5.28,1.75-3.07,5.39-3.68,8.94-5.28,4.9-2.21,7.11-6.15,13-6.09-3.2,14.5-5.7,30-11.37,43.45-1.37,3.27-3,10.13-8.53,8.53-.53-6.8,5.18-10.76,6.09-17.46a190.87,190.87,0,0,0-12.18-19.49c-7.41.43-11.45,4.25-19.08,4.46-1.53-4.37-4.91-5.79-8.53-9.74-.89-1-3.32-6.2-4.47-6.5-1.42-.37-10.24,4.09-12.18,4.87-2.14.87-4.21,1.67-6.09,2.44-3.51,1.45-5.33,3-8.53,3.25-2,4.48-1.17,13.59-7.31,12.59-2.58-4.22,1-8.73,2.44-12.59,4.65-12.76,9.22-25.81,15-37.36.1-.44.81-.28.81-.81Z" style="fill:#414042;fill-rule:evenodd"/><path d="M354.71,26c4.18,10.13-9.51,10.93-14.22,8.53-.62-2.35-1.64-4.32-2-6.9C341.34,24.88,351,24.15,354.71,26Zm-11.37,8.12c1.83-1.54,6.18-.58,7.31-2.84-.68-2.71-5-1.77-8.13-2C342.69,31,342.71,32.87,343.34,34.14Z" style="fill:#414042;fill-rule:evenodd"/><path d="M556.13,29.27h.81A107.89,107.89,0,0,0,571.56,35c3.36,1.08,13.7,2.84,13,6.9-.88,5-9.52-1.1-11.37-2-4.67-2.35-8.28-3.36-11.77-5.69,3.65,8,9.81,13.47,19.9,15-2,3.68-7.59,2.14-10.16,1.22C563.31,47.55,557.79,37.07,556.13,29.27Z" style="fill:#414042;fill-rule:evenodd"/><path d="M309.22,30.89c.79,2.06,2.48,3.21,2,6.5-4.26,3-16.49,2.94-15-4.87C298.85,30.44,305.16,30.2,309.22,30.89ZM299.48,37c3.22-.17,6.36-.41,8.12-2-2.17-.81-5.06-.9-8.12-.82Z" style="fill:#414042;fill-rule:evenodd"/><path d="M336,49.17c-.07-1,.63-1.26.81-2,0-.72-1.92.65-2.44-.41,1.93-6.65,7.67-3.09,11.78-.4,2.06,1.34,4.54,2.8,4.47,4.46-.09,1.84-4,4.38-5.69,4.47C340.57,55.48,339.15,49.73,336,49.17Zm8.52,1.22a11.2,11.2,0,0,0-6.49-4.88A17.3,17.3,0,0,0,344.55,50.39Z" style="fill:#414042;fill-rule:evenodd"/><path d="M319,48.36c0,3.15-5.13,12.4-8.53,12.59-2.29.12-6.85-3.74-6.9-6.1-.11-4.56,8-6.53,10.15-10.15A18.79,18.79,0,0,1,319,48.36Zm-10.15,6.09c2.26.26,3.66-4.32,3.65-3.66C311.25,52,309.25,52.45,308.82,54.45Z" style="fill:#414042;fill-rule:evenodd"/><path d="M327.5,65c0-.4-.5-.32-.81-.41-.11-4.14,2.06-10.68-1.22-14.21-2.82,3,2.7,9.71-.81,12.18-4.2-1.11-1.67-7.83-2.44-13C329.52,41.73,336.14,63.1,327.5,65Z" style="fill:#414042;fill-rule:evenodd"/><path d="M567.5,99.93c-3.45,3.74-7.47-1-11-1.62-2.18-.39-4.6.17-6.9-.41C544.28,96.55,537.75,91,532.57,89c-4.25-1.69-8.78-2.61-13-4.47-4.41-2-8.85-4.22-12.18-5.69-.4,0-.32-.49-.41-.81a2,2,0,0,1,1.22-.41c4.68.21,8.58,2.5,13,4.07,4.19,1.48,8.91,1.83,13.4,3.24,6,1.9,11.22,6.69,16.65,8.13C557.35,94.64,565.19,93,567.5,99.93Z" style="fill:#414042;fill-rule:evenodd"/><path d="M417.65,80.84c-.11,3.48-4.06,4.91-7.31,5.28-11,1.27-28.86-.42-39-.4,1.43-2.12,4.54-1.7,6.9-2C389.7,82.05,404.46,78.9,417.65,80.84Z" style="fill:#414042;fill-rule:evenodd"/><path d="M483,93c-15.26.63-25.16-7.6-39.8-8.94V82.87c4.12-.86,11.77.66,19.5,2C472.78,86.69,481.39,85.65,483,93Z" style="fill:#414042;fill-rule:evenodd"/><path d="M332,90.59c0,6.09-8,6.82-13,8.12-11.36,2.92-22.8,5.47-34.11,8.94-5.67,1.73-11,4.37-16.24,4.46,3.11-3.75,8.56-4.74,13.4-6.9,4.58-2,9.24-4.21,14.21-6.09,10.3-3.92,23.29-7.72,34.11-8.94C331.07,90.1,331.2,90.7,332,90.59Z" style="fill:#414042;fill-rule:evenodd"/><path d="M570.34,123.89c-7.53-.54-13.43-5.43-19.49-8.93-6.28-3.64-12.77-6.6-19.09-10.16v-1.22c.33-.07.41-.4.81-.4h.82c6.05,3,13.36,5.59,20.3,8.53C559.94,114.35,569.13,116,570.34,123.89Z" style="fill:#414042;fill-rule:evenodd"/><path d="M110.24,109.68c1.47-1.51,2.44-3.52,4.47-4.47,2.52.68,5,4.18,8.93,7.31,3.32,2.61,7.48,4.86,7.72,7.71.2,2.45-2.56,6.77-4.88,6.91-3.29.2-7-5.9-8.93-8.12C114.43,115.51,111.44,113.93,110.24,109.68Zm14.21,8.93c-3.89-3-6.29-7.52-10.56-10.15a2.82,2.82,0,0,1-.81,1.22C115.75,113.51,121.43,116.49,124.45,118.61Z" style="fill:#414042;fill-rule:evenodd"/><path d="M94.4,115.77c.31-2.55,2.93-6.68,5.69-6.5,2.09.14,3.07,3,4.46,4.47,2.28,2.44,6.24,5.42,9.75,8.93,2.49,2.5,8.27,7.2,7.72,10.56-.3,1.81-5,5.58-7.72,5.28-3.25-.35-7.69-7.74-10.56-11A100.93,100.93,0,0,1,94.4,115.77Zm5.69-2.84c-2.07.23-3.43,1.17-3.66,3.24,5.46,4.29,10.71,8.78,15.84,13.41C109,123.24,103.49,119.13,100.09,112.93Z" style="fill:#414042;fill-rule:evenodd"/><path d="M81.81,115.77c-.41,3.37-4.14,3.43-5.28,6.09,8,8.25,16.5,16,24,24.77,1.21-.55,1.69-1.83,2.44-2.84C97.41,133.2,88.07,126.43,83,115.36c3.21,1.39,5.34,4.17,7.72,6.5,4.67,4.58,8.45,8.44,13.4,14.21,2,2.38,5.7,5.3,5.68,8.12,0,2.05-2.58,5.38-4.46,6.91a19.17,19.17,0,0,1-5.28,2.43c-2.29-.13-5.53-5-7.31-7.31-6.07-7.8-13.35-16.73-18.68-24.36C76.06,119.45,77.8,114.78,81.81,115.77Z" style="fill:#414042;fill-rule:evenodd"/><path d="M235.32,119.83a7.48,7.48,0,0,1,6.09.81c3.53,2.47,3.75,13.52-1.22,15.84-6.4,3-12.82-3-10.56-10.15C230.68,123,231.85,120.65,235.32,119.83ZM232.07,130c.12,2.59,2.65,2.76,5.28,2.84,1.09-.93,2.13-5.34.4-6.49C238.54,130.46,234.81,131.73,232.07,130Z" style="fill:#414042;fill-rule:evenodd"/><path d="M587.8,138.51c-6.15.2-9.56-2-8.12-7.72.49-1.91,2.15-5.73,4.06-6.49C591.3,121.29,594.8,135,587.8,138.51Zm-2-4.87c-1,1.63-3.08-1.2-3.65,0C582.62,134.64,587,135.61,585.77,133.64Z" style="fill:#414042;fill-rule:evenodd"/><path d="M216.23,141c-2.28,7.84-10.2,10.8-17.06,15.43-9.29,6.27-18.64,12.81-27.2,19.9-4.36,3.6-7.94,7.7-12.59,11,1.91-5.53,6.67-10,11-14.62,8-8.63,17.13-15.82,27.61-22.74,5.9-3.89,11.12-7.82,17.47-9.34C215.75,140.62,215.82,141,216.23,141Z" style="fill:#414042;fill-rule:evenodd"/><path d="M478.56,168.56c-3.41-.56-5.56-3.38-8.12-5.28-5.14-3.82-12.07-6.68-19.08-9.34-5.77-2.19-11.9-2.61-15.44-6.9-.11-.66.39-.7.41-1.22C457,145.19,469.32,156.42,478.56,168.56Z" style="fill:#414042;fill-rule:evenodd"/><path d="M607.3,145.82h.81c3.48,3.08,7.71,6,11.37,9.34,3.37,3.07,8,6.73,8.12,11.78-9-4.24-13-13.53-20.3-19.5Z" style="fill:#414042;fill-rule:evenodd"/><path d="M392.47,148.66c1.5,2.74-3,2.87-4.06,3.25a175.14,175.14,0,0,0-30.05,14.21c-5.47,3.16-9.16,7.07-16.24,5.69C353.39,158.58,372.44,153.13,392.47,148.66Z" style="fill:#414042;fill-rule:evenodd"/><path d="M270.65,163.28c.3,2.07-2.27,1.26-2.44,2.84,13.69,1.45,12.93,27.48.41,29.65,1-3.64,5.43-6.13,6.09-11,.84-6.2-1.6-10.38-6.09-13-.37,2,.6,4.66-1.63,5.28-1.65.45-7.35-6.48-7.31-8.12C259.76,165.61,268.71,162,270.65,163.28Z" style="fill:#414042;fill-rule:evenodd"/><path d="M253.59,169.78c-6.58,7-8.15,21.1,3.25,23.55.62,1.73.72,5.29-.41,6.5-3.51.65-8.63-.19-10.15-2.84-.14-1.75,1.48-1.1,2.44-.82-.91-3-4-6-4.47-10.15C243.7,181.08,247.85,168.38,253.59,169.78Z" style="fill:#414042;fill-rule:evenodd"/><path d="M492,193.74c3.16,3.64,10.85,4.78,11.77,9.34-4.33-1.09-7.08-3.75-11.37-4.88-2.15,6.93-4.13,14-5.68,21.53-2.34-2.82-1.34-7.23-.82-11s1.48-7.79,1.22-11.77c-9.22-5.94-27.62-2.71-37.76-7.72.69-2.06,2.78-2.92,4.46-3.25,11.56-2.25,25,3,32.9,5.69.67-4.78-2.7-7.54-1.63-11.37C491.22,180.94,492.26,186.67,492,193.74Z" style="fill:#414042;fill-rule:evenodd"/><path d="M647.9,187.65h.82c4,3.67,7.18,7.95,10.55,12.18,3.15,3.94,8.37,7.61,8.94,13.81-5.07-.3-8.51-6.14-11.37-10.56-3.11-4.8-6-10-8.94-14.22Z" style="fill:#414042;fill-rule:evenodd"/><path d="M420.49,197c-.81,2.92-3.71,3.21-5.68,4.87a37,37,0,0,0-13.4,26c-.39,5.05.94,12.34-.82,17.46-8.1-1.83-5.89-20.81-2.84-28C401.27,209,411.84,198.8,420.49,197Z" style="fill:#414042;fill-rule:evenodd"/><path d="M310,207.54c-2.75,7.64-7.68,17.46-9.34,28.84-1,6.68-.13,13.61-6.5,14.62-1.26-17.39,7.23-32,14.62-43.46Z" style="fill:#414042;fill-rule:evenodd"/><path d="M613.39,222.16c-4.39,5.09-8.9,10.06-13,15.43,1,4.07,1.29,9.89-.4,13.41a83.83,83.83,0,0,1,19.89,8.52c10-7.94,18.42,10,8.13,11.78-5.37.93-8.17-3.8-9.75-7.72-2.45-1.22-5.43-4.09-8.93-6.09-2.77-1.57-7.54-4.54-10.16-4.46-1.59.05-3.19,2.11-4.87,2.43-6.23,1.2-12.08-3.41-13-8.52-1.82-10.12,4.78-18.83,15-13A118.44,118.44,0,0,0,611,220.54c-5.94-9.26,8.84-16.88,13.81-9.34C629.06,217.74,620.83,229,613.39,222.16Zm2-2.43a6.57,6.57,0,0,0,3.65.81,7.35,7.35,0,0,0,2-5.28C618.18,212,615.59,216.55,615.42,219.73ZM585,241.66c-.5,5.6,2.42,9.77,6.5,8.93s4.28-7.89,1.62-11C589.39,237.92,587.52,240.94,585,241.66Zm39.39,25.17c1.93,1,4.15.19,3.66-2.43C626.3,262.77,624,264.11,624.35,266.83Z" style="fill:#414042;fill-rule:evenodd"/><path d="M558.56,253c-5.25-2.44-7.2-8.08-11-12.59-5.46-6.56-13.9-10.8-20.71-17.06-2.3-2.11-7.92-6.16-4.47-8.53C538.53,221.13,551.35,237.27,558.56,253Z" style="fill:#414042;fill-rule:evenodd"/><path d="M134.2,216.88c-2.79,12.19-12,21-18.28,31.27a192,192,0,0,0-16.65,33.71c-1.78-2.69.06-6.46.82-9.34,5.06-19.38,14.77-32.9,25.17-47.92,2.7-3.89,4.17-6.77,8.13-8.12C133.72,216.56,133.79,216.89,134.2,216.88Z" style="fill:#414042;fill-rule:evenodd"/><path d="M678,228.66h1.22c8,20.81,16.14,41.72,21.53,65.79,1.69,7.59,4.38,16,2.84,24.36-6.59-3-6.37-13.21-7.72-21.11-1.31-7.71-2.56-16.09-5.28-23.15s-6.12-13.55-7.71-20.71c-1.77-8-2.82-15.92-4.88-24Z" style="fill:#414042;fill-rule:evenodd"/><path d="M484.25,231.1c-.66,9.78-7.48,16.87-13,23.14-.5-3.5,2.68-6.54,4.88-11S478.43,231.35,484.25,231.1Z" style="fill:#414042;fill-rule:evenodd"/><path d="M251.56,250.59c-2,2.11-6.25.39-9.34.41-6.79,0-13.78,3.3-19.49,2.84C225,245.85,244,247.09,251.56,250.59Z" style="fill:#414042;fill-rule:evenodd"/><path d="M318.56,272.93c-6.47-2.19-10.3-7.16-17.46-10.56A71.37,71.37,0,0,0,291,258.31c-6-1.81-13.1-1.63-15.43-7.31-.07-.48.09-.73.4-.82C295.76,250.52,309,261,318.56,272.93Z" style="fill:#414042;fill-rule:evenodd"/><path d="M202.83,257.9c-.45,2.5-2.41.63-3.66.81-5.4.79-9.28,5.55-15.83,5.69C185.54,258.24,196.37,254.74,202.83,257.9Z" style="fill:#414042;fill-rule:evenodd"/><path d="M429.83,271.3a28.46,28.46,0,0,1-21.11-11.37c.33-.08.4-.41.81-.41s.38.16.4.41a96.12,96.12,0,0,0,11,4.87C424.34,266.07,429.94,266.37,429.83,271.3Z" style="fill:#414042;fill-rule:evenodd"/><path d="M464.35,260.74c.63,4.28-4.87,5-8.53,6.09-5.42,1.6-11.26,4-17.46,2,1.7-2.08,3.29-1.12,5.28-1.62C451,265.41,457.58,259.15,464.35,260.74Z" style="fill:#414042;fill-rule:evenodd"/><path d="M795.72,262c-.9,4.59-7.38,3-11.37,3.25-15,1.07-28.33,7.83-34.52,18.27-.66,1.12-1,3.36-2.84,3.66,2.06-16.75,20.21-26.94,40.61-27.21C790.22,259.9,793.63,259.83,795.72,262Z" style="fill:#414042;fill-rule:evenodd"/><path d="M61.1,264c-1.54,9,4.43,28.1,2.84,37.77-.33,2.05-4.48,9.39-7.31,4.87-1.38-2.21,1-2.79,1.63-4.87.21-10.8,1.32-24,0-33.71-5.36-2.29-16.56-1.26-24.77-1.62-3.52-.16-8,.5-9.75-2,8.71-1.26,21.2-2.06,30.05-3.25C57.14,260.7,58.82,263,61.1,264Z" style="fill:#414042;fill-rule:evenodd"/><path d="M18.46,264.4c-.88,4.25-11.9,2.27-14.62,2C6.69,264.14,14.63,263,18.46,264.4Z" style="fill:#414042;fill-rule:evenodd"/><path d="M808.31,266c-.49-.53-.16-.64,0-1.22.33-.07.41-.4.81-.4,14.62,6.36,27.6,15.37,26.8,35.73a25.36,25.36,0,0,1-9.34,18.68c-1.44,1.23-10.3,7.17-11.77,2.44-1.18-3.78,5-4.19,6.09-4.87,7.23-4.45,9.8-12.15,8.93-21.12C828.41,280.51,819.23,271.43,808.31,266Z" style="fill:#414042;fill-rule:evenodd"/><path d="M503.34,272.93a20.66,20.66,0,0,1,5.68-.41c5.29,2.18,8.91,8.37,6.5,15.43-.75,2.19-3.62,5.41-4.06,7.72-13.61-1.42-23.9-6.16-37.77-7.31-.89-1.35-2.63-1.88-2.84-3.66s1-1.57,2-4.47c.74-2,.26-3.8,1.22-5.27,1.44-2.21,6.75-3.6,11-5.69,3.39-1.68,5.54-4.67,10.56-3.65C499.27,266.36,501.36,270.05,503.34,272.93Zm-10.16-2c-2,.05-3.45,2.86-5.28,3.66-3.62,1.6-8.39,1.45-8.52,5.28a34.89,34.89,0,0,1,1.62,5.68c3.48.18,6.56.76,9.75,1.22.75-.87.27-3,.4-4.46-1.18.53-2.33.32-2.84-.82-.16-7.14,10.73-5.58,10.15.82,0,2-3.15.9-3.65,2.43v2.44A119.77,119.77,0,0,1,511.46,290c3.22-4.49,1.65-12.48-3.66-13-2.88-.28-3.74,2.12-7.31,2C497.76,276.06,497.54,270.79,493.18,270.89Z" style="fill:#414042;fill-rule:evenodd"/><path d="M575.21,305c-2.6-2.08-2.41-6-3.24-8.94-2.51-8.73-6.17-17.68-8.53-26.8-.07-.47.09-.72.4-.81,2-.64,4.28,1,5.28,2.43C574.28,278.21,574.08,294.82,575.21,305Z" style="fill:#414042;fill-rule:evenodd"/><path d="M.59,272.93H1.81c.78,5.15,2.89,12.92.82,18.27.21,4.2,3.21,9.66,1.21,13.4-4-.83-2.24-9.67-2-13.4C-1.16,287.89.36,278.1.59,272.93Z" style="fill:#414042;fill-rule:evenodd"/><path d="M18.87,278.61c3.41,2.68,1.25,10.93,3.25,15,4.49-1.74,8.15-4.31,12.59-6.1-3.7-4-9.86-5.57-13-10.15.33-.08.41-.41.81-.4,4.62,1.25,6.94,3.13,11.78,5.28,2.66,1.17,5.8,2.15,6.09,4.06.47,3-4.9,6.09-7.71,7.71-4,2.3-11.54,7.37-13.81,1.63C17.38,291.9,17.87,283.31,18.87,278.61Z" style="fill:#414042;fill-rule:evenodd"/><path d="M153.69,281.86c-1.35,2.92-4.72,4.05-7.31,5.68a89.3,89.3,0,0,0-7.71,5.28c-4.45,3.52-8.5,10.47-15,8.94,5.88-10.5,18.32-14.44,28.83-20.31C153.13,281.34,153.17,281.84,153.69,281.86Z" style="fill:#414042;fill-rule:evenodd"/><path d="M784.76,286.33c4.77-1.24,7.85,1.44,8.12,4.87C794,305.13,771.66,289.71,784.76,286.33Zm1.62,6.9c2.36.88,2.82-2.57.41-2A2.64,2.64,0,0,0,786.38,293.23Z" style="fill:#414042;fill-rule:evenodd"/><path d="M764.86,286.73c9-2.38,6.84,9.93,1.62,10.56C759.82,298.1,758.58,288.39,764.86,286.73Zm1.62,6.5c.57-.53,1.46-2.15,0-2.44C766.17,291.07,765.58,293.06,766.48,293.23Z" style="fill:#414042;fill-rule:evenodd"/><path d="M288.51,291.2h1.22c1.36,7.31,2.65,14.68,4.87,21.12,5.41-1.09,12-3.2,17.87-2.44-.53,2.39-5.08,2.37-8.12,3.25s-6.44,1.87-8.53,3.25a135.53,135.53,0,0,1,4.47,15c1.26,4.94,4.7,10.3,2.44,14.62-5.82-.24-6.08-7.56-7.31-12.18-1.41-5.24-2.74-10.93-4.06-15.43-20.05,5.2-38.4,14.54-55.23,24.77-2,1.22-5,4.08-7.72,2,.19-5.23,7.83-8.19,12.18-10.56,14.75-8,31.26-16.81,49.55-21.12C289.94,305.9,287.19,299,288.51,291.2Z" style="fill:#414042;fill-rule:evenodd"/><path d="M343.34,292.82c3.85,1.84,5.09,6.28,6.9,10.16,5.21-.26,12,.15,17.46.4,3.1.15,8-.89,8.93,1.22-7.36,1.84-16.57,1.84-24.77,2.84-1.16,1,.57,4.9-1.21,5.28-1.64-.39-1.43-2.63-1.63-4.47-4,.27-8.71,1.17-10.15-2,.84-2.67,4.43-2.6,7.71-2.84C346.19,299.41,341.46,297.72,343.34,292.82Z" style="fill:#414042;fill-rule:evenodd"/><path d="M746.18,294.45c4,.55,3.54,5.21,4.47,7.71,5.76,15.64,28.87,15.14,48.73,13.81,2,4,2.73,9.18,4.87,13,1.27-2.84,4.79-13,8.93-8.94,2.4,2.38-1.61,6-3.25,8.53-1.21,1.87-3.1,8-5.27,8.12-4.54.31-4.3-12.08-5.69-15.84-17.57,3.13-38.87-1.21-48.32-11.77-3-3.38-6.31-10.16-5.28-14.62Z" style="fill:#414042;fill-rule:evenodd"/><path d="M441.61,309.88c-3.17.77-7.1-.57-11.78-.81-8.39-.44-18.25,1.85-20.3-4.06a1.88,1.88,0,0,1,1.22-.41c5.38-.84,12.51.64,18.68,1.62C434.15,307,439.43,307.17,441.61,309.88Z" style="fill:#414042;fill-rule:evenodd"/><path d="M55.82,305.82c-1.34,7.33-17.43,1.66-24,3.25.58-2.27,3.89-2,6.5-2.44C43,305.86,52,304,55.82,305.82Z" style="fill:#414042;fill-rule:evenodd"/><path d="M243.84,311.5c-5.62-6.87,8.84-6.78,3.25,0Z" style="fill:#414042;fill-rule:evenodd"/><path d="M25.37,309.47c-3.54,4.2-17.37,1.6-21.12-.4C9.26,308.55,22.52,305.68,25.37,309.47Z" style="fill:#414042;fill-rule:evenodd"/><path d="M523.64,328.56c-11.54-2.56-26.51-5-40.2-8.12-3.85-.87-9.36-1.45-10.16-6.09,16.17-2.12,33,6.62,45.49,11.37C520.42,326.34,523.43,326.15,523.64,328.56Z" style="fill:#414042;fill-rule:evenodd"/><path d="M574.81,354.14c-2.15.12-.87-3.19-1.22-4.87-4.76-2.3-10.7-3.85-16.24-5.68-5.33-1.77-11.83-2.88-14.22-7.72,11.87-1.52,20.36,7.21,30,10.56,2.28-8.58-.75-18.69,0-28.43,10.4-1.68,4,17.55,3.25,28C576.25,348.6,576.58,352.4,574.81,354.14Z" style="fill:#414042;fill-rule:evenodd"/><path d="M87.5,322.47c1.35,4.52-1.17,8.54-2,12.18,5.86-2.94,9.21-10.54,15-12.18-3.48,6-8.93,11.16-13.4,17-4,5.32-6.45,10.62-7.71,20.31-1,7.65.09,15-1.63,22.74-3-1.29-1.51-4.4-1.62-6.5-.39-6.92-1.43-14.16-.81-21.93,1-13.17,4.69-26.6,11-32.08C86.94,322,87,322.45,87.5,322.47Z" style="fill:#414042;fill-rule:evenodd"/><path d="M350.24,325.31c9.46-2.28,8,12.77,3.25,14.21C344.68,342.18,342.17,327.25,350.24,325.31Z" style="fill:#414042;fill-rule:evenodd"/><path d="M451.76,353.33c-3.26,7.84-8.1,14.1-13,20.31,0-6.89,4.72-12.59,6.9-18.68-6.59-8.58-19.16-11.17-29.24-16.25-4.47,2.57-5.17,8.91-9.74,11.37,1.76-5.93,4-18.09,11.37-17.46,2.62.22,5.85,3.54,8.52,5.28C434.54,343.07,444.51,349,451.76,353.33Z" style="fill:#414042;fill-rule:evenodd"/><path d="M144.35,333c-.76,4.24-3.79,9.27-6.09,14.21-2,4.23-3.74,11.19-8.93,11-1-5.11,3.37-8.92,5.68-12.58,2.75-4.36,5-8.71,8.12-12.59Z" style="fill:#414042;fill-rule:evenodd"/><path d="M703.94,335.06c.66-.12.7.38,1.22.4-.3,7.07,3.32,17.39.41,23.15-6.58-2.62-1.76-15.89-2-22.33C703.42,335.62,703.92,335.58,703.94,335.06Z" style="fill:#414042;fill-rule:evenodd"/><path d="M418.46,346.83c8.52-1.43,15.84,2.65,17.06,8.94,1.85,9.53-4.33,16.93-10.56,17.87-4.77.71-12-1.56-14.62-4.88C404.82,361.7,409.46,349.29,418.46,346.83Zm4.06,22.34a9.68,9.68,0,0,0,8.13-11c-4.93,2.14-3.28,10.82-11.38,8.94-6.22-1.45-6.43-15.14,2.44-13.4.18-1.2,3.82-2.73,2-3.25C409.56,349.62,408.24,371.06,422.52,369.17Zm1.22-13.81c.12.83,1.1.8,1.22,1.63a3.37,3.37,0,0,0,3.66-1.63A2.45,2.45,0,1,0,423.74,355.36Z" style="fill:#414042;fill-rule:evenodd"/><path d="M155.72,350.08c1.47,4.69-4.9,5.2-8.12,6.5-3.83,1.55-7.58,4-10.56,4.06C141.54,355.39,147.61,351.71,155.72,350.08Z" style="fill:#414042;fill-rule:evenodd"/><path d="M405.06,352.93c0,5-3.41,10.1-5.28,14.61,2,4.54,7.89,5.11,9.75,9.75a33.11,33.11,0,0,1-14.62-7.72C397.08,362.81,400.18,357,405.06,352.93Z" style="fill:#414042;fill-rule:evenodd"/><path d="M117.55,355c3.75,1.11,4,5.7,6.5,8.12,6.73-.85,10.43,7,6.49,11.77.87,3.24,4.33,5.9,2.85,10.16-3,1.25-5.78-1.31-8.53-.82-2.57.46-2.86,2.77-4.87,3.25-7.71,1.84-13.58-5.81-13.81-10.56-.38-7.77,10.64-13.78,10.56-21.92Zm-5.28,26.39c2.67-.85.69-8,0-10.56C111,372.54,109.81,379.87,112.27,381.35Z" style="fill:#414042;fill-rule:evenodd"/><path d="M302.73,357c6.89-1.89,7,8.36,2.43,9.34C299.87,367.46,296.76,358.62,302.73,357Z" style="fill:#414042;fill-rule:evenodd"/><path d="M613.79,372c-1.77.93-3.12-.53-3.65-2a22.71,22.71,0,0,1-9.34-5.28v-1.22C606.44,363.41,612.45,366.43,613.79,372Z" style="fill:#414042;fill-rule:evenodd"/><path d="M151.25,366.73c-1.95,2.95-9.43,2.44-13,2.44C140.11,366.56,148.77,363.45,151.25,366.73Z" style="fill:#414042;fill-rule:evenodd"/><path d="M574,367.14c1.3,4.77-1.25,9.28-2.85,13s-2.62,8.77-6.49,10.16C567.44,387.21,567.09,365.87,574,367.14Z" style="fill:#414042;fill-rule:evenodd"/><path d="M702.32,373.23c8.06-2.43,7.22,9,2.44,10.15C698.31,384.94,696.66,374.93,702.32,373.23Z" style="fill:#414042;fill-rule:evenodd"/><path d="M437.55,376.48c-.51,2.12-3.25,12.47-6.5,13.4s-7.71-3.28-10.56-4.87c-3.79-2.13-7.76-3.3-8.93-6.5,6.13.25,11.36,4.86,17.46,6.5C432.55,382.85,433.34,378,437.55,376.48Z" style="fill:#414042;fill-rule:evenodd"/><path d="M63.54,377.29c-1.13,4.47-4.32,8.53-6.09,13.4-1.59,4.39-1.52,10.92-6.91,12.18-.08-10.78,6.9-18,11.37-25.58Z" style="fill:#414042;fill-rule:evenodd"/><path d="M702.32,396.38c2.52,2.37,3.28,21.57-2.44,20.71-3.48-.53-1.1-4.08-.4-6.5,1.23-4.25,1.38-9.53,1.62-13a1.83,1.83,0,0,0,.41-1.21Z" style="fill:#414042;fill-rule:evenodd"/><path d="M552.47,400c9.8-2.94,8.46,12.61,2.85,13.4C547.36,414.56,545.42,402.15,552.47,400Z" style="fill:#414042;fill-rule:evenodd"/><path d="M46.48,425.62c1.5,4.5-.4,10.06-.4,15.43,0,7.19,3.68,14.23,1.21,19.49-5-.39-4.69-7-4.87-11-.36-7.88,2.07-16.52,2.84-22.74a1.85,1.85,0,0,0,.41-1.21Z" style="fill:#414042;fill-rule:evenodd"/><path d="M357.14,427.65c-.13,3.88-8.12,3.92-11,2.43A20,20,0,0,1,357.14,427.65Z" style="fill:#414042;fill-rule:evenodd"/><path d="M82.22,431.71c6.14.48,7.27,7.53,9.34,13.4,3.11,8.84,5.82,17.43,9.34,26,1.79,4.36,4.49,7.75,4.87,11.77-6.69-5.47-10.08-14.52-14.21-22.74s-7.06-17.82-9.75-27.2C81.7,432.27,82.2,432.23,82.22,431.71Z" style="fill:#414042;fill-rule:evenodd"/><path d="M163.44,441.86c-.79,1.73-4.11.42-5.28,0v-1.22A4.79,4.79,0,0,1,163.44,441.86Z" style="fill:#414042;fill-rule:evenodd"/><path d="M658.87,441.86c-.56,3.86-8.73,2.33-10.15,0A25.88,25.88,0,0,1,658.87,441.86Z" style="fill:#414042;fill-rule:evenodd"/><path d="M459.07,441.86c6.74,1.93,10.54,8.94,10.15,16.65-6.43-1.95-4.1-12.68-10.15-15Z" style="fill:#414042;fill-rule:evenodd"/><path d="M546,442.27c2.86,1.6,2.93,6,6.09,7.3,1,24.42,5.68,49.69,8.12,73.51A75.84,75.84,0,0,0,564.66,541c2,5.42,5.76,10.89,4.06,16.65-4.1,1-4.45-3.58-5.28-5.69a70.87,70.87,0,0,1-4.88-18.68c-.4-3.55.06-7.73-.81-11-.52-1.93-2-2.57-2.84-4.47-1.84-4.23-2.38-12.12-3.25-19.49-2.24-19,1.46-40.81-6.5-54.42C544.87,442.78,546,443.07,546,442.27Z" style="fill:#414042;fill-rule:evenodd"/><path d="M180.49,448.76c-3.69-.5-7.5-.89-8.93-3.65C174.27,445,180.34,445,180.49,448.76Z" style="fill:#414042;fill-rule:evenodd"/><path d="M342.52,452c-1.68,3.68-5.51-.13-7.71-1.22-2.9-1.42-6.21-2-8.12-3.65.18-.36.35-.73.81-.81C332.37,446.76,339.34,448.55,342.52,452Z" style="fill:#414042;fill-rule:evenodd"/><path d="M446.48,450c-2.36,15.41.95,37.54,2,52.79-3.89-2-3.18-9.45-5.28-15.43-.84-2.39-2.39-4.23-2.43-8.12-.11-9.86,1-23.37,4.46-29.24Z" style="fill:#414042;fill-rule:evenodd"/><path d="M593.08,451.2h1.22c5,6.32,13.76,13,12.18,23.15-7.09-4.82-7.94-15.89-13.8-21.93C592.56,451.76,593.06,451.72,593.08,451.2Z" style="fill:#414042;fill-rule:evenodd"/><path d="M708,456.07c-1.39,4.41.72,10.22,0,15-.52,3.39-3.56,6.63-4.47,10.15-2.12,8.17-.38,20.25-2.44,28.43.71,2.95,3.93,3.38,3.66,7.31a7,7,0,0,0-1.63,1.21c-4.49-1.73-5.24-7.21-8.12-10.55-4.17,0-8.21-.19-10.56-2,2.67-1.46,8.23.19,12.19-.82q.15-20.15,8.52-32.08c-1.55-5-.36-12.64,1.63-16.65Z" style="fill:#414042;fill-rule:evenodd"/><path d="M343.34,459.32c.76,2.35-2.46,3.84-3.66,6.09-1.59,3-3.15,8-4.87,12.59s-4.29,10.19-4.06,13.4c.15,2.24,2.6,3.46,1.62,5.69-5.47,3-7.23-3.25-6.9-6.91.42-4.71,4.14-10.24,6.9-15.83,3.29-6.66,5.4-11.41,9.34-15Z" style="fill:#414042;fill-rule:evenodd"/><path d="M469.63,463c1.62.68,1.46,3.09,1.62,4.87.65,7,1,18.64-3.65,20.3-2.84-2.82-1.13-8.25-.41-12.59S468.25,466.26,469.63,463Z" style="fill:#414042;fill-rule:evenodd"/><path d="M225.57,464.19c1,2.81-.58,6.4-2.84,7.31-1.39.18-1.22-1.21-2-1.62C221.94,467.6,222.68,464.82,225.57,464.19Z" style="fill:#414042;fill-rule:evenodd"/><path d="M830.65,506c-3.1-1.76-1-5.26-.82-8.12.4-6.67-2.85-12.29-5.28-16.65-6.25-1.06-7.8-6.81-13.4-8.53-15.86-2.07-23.71,3.48-30.45,11.78-1.67,2.05-3.63,6-7.31,4.87-1.62-3.85,1.62-7.91,3.65-10.15,6.56-7.24,18.56-12,32.49-11.78,1.63.4,2,2.11,3.25,2.85C821.1,473.44,831.27,482,834.3,491,835.82,495.53,837.07,504.75,830.65,506Z" style="fill:#414042;fill-rule:evenodd"/><path d="M497.24,478c0,3.27-2.92,5.86-.4,8.12-8.35,10.88-17.48,21-26.4,31.27-1.14.22-2.11.6-3.25.81a21.07,21.07,0,0,0-7.71,9.75c-.88,2.07-1.16,6-4.88,5.28-.24-7.71,5.32-13.08,11-16.24a2.49,2.49,0,0,1,2.44-2.44c-1.45-5.82-1.17-16.46,0-22.34,2.71,1.39,2,5.78,2.43,8.94s1.24,6.69,1.22,9.74c3.77-3.54,7.48-7.14,11.37-10.55,1.12-5.89,7.93-10.09,9.75-15.84C493.55,482.06,492,475.93,497.24,478Z" style="fill:#414042;fill-rule:evenodd"/><path d="M642.22,483.28c-4,.81-9-.69-12.18-2C632.91,479.91,641.74,479.53,642.22,483.28Z" style="fill:#414042;fill-rule:evenodd"/><path d="M808.31,497.49c2.88,6-1.59,9.44-4.87,13.4-1.77,2.15-4.33,6.72-6.5,6.91-2.46.22-5.65-3.86-8.12-5.69-2.74-2-6.51-4.06-7.72-5.68-.53-.71.08-3-1.62-2.44,4-7.57,8.25-16.85,20.71-14.62.43-5.8,8.69-9.86,13.81-6.5C819.84,486.72,815.26,498,808.31,497.49Zm-2.44-4.87c4.08,1.75,8-1.85,6.1-6.09C807.56,484.51,803.8,487.49,805.87,492.62ZM788,499.52c4.78-.92,9.75-3.56,15-1.62C802.05,491.94,789,495.41,788,499.52Zm1.21,6.1c3.38,1.62,9.4-.06,10.56-3.25C795.75,502.94,790.82,502.61,789.22,505.62Z" style="fill:#414042;fill-rule:evenodd"/><path d="M51.36,482.87c.65-.11.7.39,1.21.41,2.67,8.87,10.25,14.89,10.56,24.77-4.52-1.23-5.6-6.64-7.31-10.56-1.85-4.23-3.35-8.87-4.87-13C50.78,483.65,51.23,483.42,51.36,482.87Z" style="fill:#414042;fill-rule:evenodd"/><path d="M771.36,492.62c.56,5.41-.55,10.56.4,15.43,1.26,6.48,7.66,13.71,12.59,15.84,1.24.54,3.09.24,4.87.81,2.68.85,4.88,3,7.31,3.25,11.88,1.08,22.3-5.91,28.43-13.4,1.84-2.24,2.14-5.92,5.28-6.9-.92,7.62-5.15,13.92-10.15,18.68-3.94,3.74-11.62,8.54-18.68,8.93-15.46.85-31.77-11.41-33.71-26-.67-5,0-11.93,2.44-16.65Z" style="fill:#414042;fill-rule:evenodd"/><path d="M496.43,494.24a55.55,55.55,0,0,0-2.84,4.88c-1.39.17-1.22-1.22-2-1.63C492.09,495.5,494.09,493.11,496.43,494.24Z" style="fill:#414042;fill-rule:evenodd"/><path d="M544.76,495.46c.65-.11.7.39,1.22.41-.5,7.42-5.5,11.92-4.88,20.71.09,1.2-.08,2.32,0,3.65.4,6.53,4,15.29-1.22,18.28-4.23-4.94-1.47-15-1.62-22.74-.82-.15-3.21,2.91-5.69,1.22-.59-4.17,3.55-6.69,5.69-9.75C540.77,503.66,542.74,499.39,544.76,495.46Z" style="fill:#414042;fill-rule:evenodd"/><path d="M494.4,501.15c-.1,2.2-.93,3.66-1.22,5.68C489.32,506.67,491.6,500.73,494.4,501.15Z" style="fill:#414042;fill-rule:evenodd"/><path d="M678,504c-2.05,1-7-.24-9.33.41C668.35,500.77,677.67,501,678,504Z" style="fill:#414042;fill-rule:evenodd"/><path d="M448.11,511.3c.65-.11.7.38,1.22.41.5,4.78,2.89,11.53.81,16.24C445.58,526.53,448.2,515.84,448.11,511.3Z" style="fill:#414042;fill-rule:evenodd"/><path d="M241,518.2h1.22c3.27,4.28,9,11.8,6.5,17.87-5.91-2.22-3-13.23-8.13-16.24C240.42,519,240.87,518.75,241,518.2Z" style="fill:#414042;fill-rule:evenodd"/><path d="M515.11,519c-2.67,6-9.51,10-15.84,11C504,525.8,508.27,521.11,515.11,519Z" style="fill:#414042;fill-rule:evenodd"/><path d="M74.1,523.48h.81c6.9,4.78,13.66,11.79,21.93,15.84,2.44,1.2,6.8,1.61,6.5,5.28-2.13,3.36-5.89.41-8.13-.81C88.2,540,79,530.19,74.1,524.7Z" style="fill:#414042;fill-rule:evenodd"/><path d="M343.34,526.73c18.29-3.62,25.68,23,8.52,28-7.14,2.09-15.64-1.69-18.27-6.09-2.19-3.66-2.73-11.63,0-16.24C335.14,529.8,339.34,527.52,343.34,526.73ZM338.46,543c3.62-3.43,8.13-6,11.78-9.34C344.41,530.42,338.51,537.9,338.46,543Zm5.69.81c4.75.55,6.15-2.24,9.34-3.25C352.67,532.13,346,541.14,344.15,543.79ZM349,547c2.92,2.05,5.9-2.76,4.06-4.06C351.89,544.49,349.7,545,349,547Z" style="fill:#414042;fill-rule:evenodd"/><path d="M49.33,556.38c1.68,5.35,6.49,7.58,13.4,7.71,1.45-1.79.21-6.28,2-7.71,4.71-4,16.46,4.44,16.65,8.93.23,5.82-9.78,10.51-15.43,12.18a26.73,26.73,0,0,1-17.47-1.21c-7.35-3.52-17.44-15.51-16.65-28,.16-2.46,3.68-11.73,7.31-10.16C46.29,541.19,55.62,547.17,49.33,556.38Zm-6.91-2c.14-1.66,2-3.14,1.22-4.47H42C42.27,551.25,41.49,553.65,42.42,554.35Z" style="fill:#414042;fill-rule:evenodd"/><path d="M542.73,540.13h.81c5.62,4.08,11.62,10.56,16.24,17.06,3.75,5.27,8.75,12,7.72,18.68-4.36.4-6.14-4.32-7.72-7.31-1.72-3.27-3.11-7.2-4.87-10.15C551.44,552.58,546.16,546.49,542.73,540.13Z" style="fill:#414042;fill-rule:evenodd"/><path d="M516.33,542.16c-4.2,5.55-16.58,2.91-24.36,4.88-1.67.47-3.57,2.81-5.28.81,1.82-3.83,8.67-4.64,13.8-5.69S512.42,539.07,516.33,542.16Z" style="fill:#414042;fill-rule:evenodd"/><path d="M689.33,540.54h.81a76.63,76.63,0,0,0,21.52,6.9c2,.25,4.81-1.24,5.28,1.63,1,6.3-11.7.87-13.81,0a68.92,68.92,0,0,1-13.4-6.91A2.29,2.29,0,0,1,689.33,540.54Z" style="fill:#414042;fill-rule:evenodd"/><path d="M108.62,555.16c-4.39-8.72,8.09-11.17,8.12-3.66C116.75,555.46,112.21,557.48,108.62,555.16Z" style="fill:#414042;fill-rule:evenodd"/><path d="M171.15,564.5H172c3.09,1.23,3.36,7.76,2.43,10.56C169.53,575.5,171.35,567.41,171.15,564.5Z" style="fill:#414042;fill-rule:evenodd"/><path d="M512.27,569.37c-1.54,6-1.41,13.75-7.72,15-1.51-5.84,4-11,6.5-15.43A1.93,1.93,0,0,0,512.27,569.37Z" style="fill:#414042;fill-rule:evenodd"/><path d="M193.08,569.37c1.47,2-.82,5.38-1.62,8.12s-.94,6.66-4.06,6.91c0-.4-.5-.32-.82-.41A16.55,16.55,0,0,1,193.08,569.37Z" style="fill:#414042;fill-rule:evenodd"/><path d="M217.85,569.37c1.78,1.39,1.71,7.24,1.22,10.56-.35,2.39-1.23,5.06-3.25,4.87C215.27,580,215.12,572.25,217.85,569.37Z" style="fill:#414042;fill-rule:evenodd"/><path d="M807.5,619.32c-2.36,3-7.78,1.55-11.78,2-9,1.07-24.16,0-34.11-1.62,4-3.11,10.51-1.38,16.24-1.63A146.63,146.63,0,0,1,807.5,619.32Z" style="fill:#414042;fill-rule:evenodd"/><path d="M592.68,621c2.52-1.55,6.85-1.29,11.37-1.63a194.73,194.73,0,0,1,21.93-.81c4,.18,11.44-1,11.37,3.25-.07,3.72-7,3.08-10.56,2.84-6.74-.45-12.92-1.28-19.9-1.62C602.52,622.76,596,622.44,592.68,621Z" style="fill:#414042;fill-rule:evenodd"/><path d="M590.65,620.13c-3.16,4.76-14.95,1.11-19.9,0a1.86,1.86,0,0,1-.41-1.22C576.44,618.38,586.16,617.7,590.65,620.13Z" style="fill:#414042;fill-rule:evenodd"/><path d="M460.7,622.57V625c-3.19,1.93-13,2.2-14.62-1.22C447.13,619.18,458.05,619.72,460.7,622.57Z" style="fill:#414042;fill-rule:evenodd"/><path d="M109.43,623c-3.25,2.17-8.41,1.19-13,1.62-6.05.57-12.15,1.76-17.46,2-3.18.16-12.6.78-13.4-2-.7-2.46,1.41-3.31,2.44-3.65,5.15-1.74,12.72.09,19.49.4C95.71,621.73,104.09,620.93,109.43,623Z" style="fill:#414042;fill-rule:evenodd"/><path d="M132.17,623.38c-5.94.14-16.82,3.89-20.71-.4a1.1,1.1,0,0,1,.81-1.22C116.4,621.55,129.46,620,132.17,623.38Z" style="fill:#414042;fill-rule:evenodd"/><path d="M733.59,622.16h1.22c1.19,1.93-.92,3.55-.81,5.69,2.14,0,2.49-1.84,5.27-1.22,2,2.23,3.84,10.71-2,9.75a4.07,4.07,0,0,1-2-3.25c-1.25.42-3.41,1.47-4.87.4C729.12,629,732.83,626,733.59,622.16Z" style="fill:#414042;fill-rule:evenodd"/><path d="M249.12,624.6c-1.07,1-2.39,1.58-3.65.41C245.3,622.22,249,622,249.12,624.6Z" style="fill:#414042;fill-rule:evenodd"/><path d="M362,628.26c-.52,2-5.13,1.62-6.1.81C355.54,625.8,361,627.12,362,628.26Z" style="fill:#414042;fill-rule:evenodd"/><path d="M725.06,633.53h.81c4.3,5.74,14.79,7.41,15,15.84-3.34-.25-5.44-3.53-7.72-5.68-3-2.85-6.13-4.89-8.12-8.53Z" style="fill:#414042;fill-rule:evenodd"/><path d="M756.74,667.65c-1-1-1.3-4.36,0-5.28,2-.53.57,2.4,1.62,2.84,13-2.14,21-12.83,18.28-28,2.08-4.27,6.9-.82,7.3,2,.24,1.66-.86,2.5-1.21,4.06-1.09,4.79-1.17,8.6-4.06,13C774.44,662.68,768.86,670.13,756.74,667.65Z" style="fill:#414042;fill-rule:evenodd"/><path d="M749,636.38c2,0,2.14,4.39.81,5.28H749C746.78,641.59,747.7,636.66,749,636.38Z" style="fill:#414042;fill-rule:evenodd"/><path d="M152.07,640.84h1.21c2.26,10.93,6.85,21.72,9.75,32.9.81,3.09,2.9,7.85,0,10.56-4.18,0-4.48-5.16-5.28-8.13a203.29,203.29,0,0,1-5.68-34.11Z" style="fill:#414042;fill-rule:evenodd"/><path d="M747.4,657.49c2.54,1.12,4.49,2.82,6.9,4.06C752.19,665.83,746.64,659.89,747.4,657.49Z" style="fill:#414042;fill-rule:evenodd"/><path d="M391.66,675.77c3.78,5.29,2.83,15.31,5.69,21.52a2,2,0,0,0-1.22,1.22c-7.83-1.11-3-14.86-5.28-21.52C390.62,676.09,391.62,676.41,391.66,675.77Z" style="fill:#414042;fill-rule:evenodd"/><path d="M231.25,565.31c-2.95-6.08-7.56-13.56-5.27-22.33,2.2.11,2.55.48,4.06-.41a23.64,23.64,0,0,0,4.87,3.65c3.61,1.82,9.59,1.69,10.15,6.5-5.83,1.91-9.92-4.6-14.62-6.5,2.74,9.33,8.78,18.59,11.78,29.24a21.08,21.08,0,0,1,.81,5.69c-.2,9.46-.57,20.38-4.06,29.24,3.93,18.9,6.76,46.27,4.06,68.63-.43,3.54-1.35,6.54-5.68,6.9-1.39-10.13,3.2-21.16,1.62-30.86-.61-3.76-.06-7.7-.41-11.78-.86-10.18-3.28-21.81-5.28-32.89-2.22-12.35-3.54-24.06-4.87-33.3-1.11-7.76-9.87-13.73-11.37-20.31-4.75-4.59-17.56,1.33-19.9,6.5,2.13,6.84,1.37,14.27.41,22.74,2.69,3.06,7.15,6.3,6.5,11.37-4-.74-4.78-4.7-6.91-7.31-3.79,8,2.31,17.5,5.28,24.77,7,17.18,14.61,35.53,18.68,53.2-4.43-4.52-5.59-11.12-8.53-16.65s-6.19-11-8.12-17c-3.07.68-10.78,1.63-15,1.21-2,13.73-3.73,27.94-5.69,43.05-.35,2.74-1.41,11.11-4.87,11-4-.17-2.52-8.07-2-10.56,6.15-31.63,14.22-65.72,15.84-101.12,1-1.66,3-3,2.84-5.69-.12-2.26-1.8-2.72-2.84-4.87-2.94-6.08-2.13-17.33-8.13-18.68-2.81-.63-6.88,1.7-10.15,2.84-3,1-7.1,1.62-9.34,3.25-3.15,2.3-3.92,6.9-8.12,7.72-3.55,8.64-5.92,26.76-1.22,36.14,1.83-6.39,6.36-14.58,4.47-22.33-.73-3-3.44-5.4-.81-8.13,3.27,1.86,7.27,4.54,7.31,8.13,0,2-2.74,3.86-3.25,6.09-1.26,5.45,2.11,11.26-.41,16.24a5,5,0,0,1-2.84,1.62c-1.24,5.72-.9,11.6-2.84,16.65-.68,1.77-2.4,3.23-2.85,4.88-1.47,5.39.78,11.63-.81,16.65-2.27-1.12-2.1-4.67-2.44-7.72-.93-.89-1.34,1-3.24.41-3.77-2.36-7.52-6.33-11.38-7.31-4.79-7.15-10.41-15.19-11-26-.8-15.65,6.53-30.48,12.18-40.61-1.41-1-2.91,1.4-4.46,1.62-8.68-1.4-12.81-16.6-11.78-27.2.62-6.41,3.64-12.59,3.65-19.9,0-6.3,2.09-14.16-1.62-18.68,0-25.23-.09-45.74,13.81-56,3.87-2.88,10.55-4.93,14.62-6.91-5.43-6.37-1.65-17.9,3.25-24.77,3.3-4.63,9.25-9.31,10.15-14.62.37-2.23-.62-3.89-.81-6.09-.71-7.84,1.78-13.79,6.09-19.09.79-.69,2.27-.7,3.25-1.21,6.15-7.8,15.58-12.3,29.64-12.19,1.5.47.69,1.7,1.22,2.44,6.52-4.5,11.79-.46,17,2.84,5,3.13,9.67,7,10.56,13.81.76,5.83-.1,10.23.81,15.84.38,2.29.32,5.06.82,6.9.82,3.07,5.65,9.15,2.84,13.81-2.89.58-1.5-3.1-2.44-4.47-2.38,4.14-.5,12.76-4.87,15.84,3.88-1.26,4.3-6,7.31-8.12,2,6.35-6.88,10.81-8.53,15.83-2.48,7.55,3.38,13.74,11.78,12.19.25,1.6-.91,1.8-2,2,7.3,5,5.22,14.49,8.12,24-4.13,9.75,2.89,22.92,1.62,33.7,3.87,10,9.19,20.7,8.13,36.55-.31,4.61-1.87,17-6.1,16.24-4.85-.87.91-12.21,1.22-15,.47-4.13,1.11-10,.41-13.4-.27-1.31-1.57-2.28-2-3.66-1.91-5.72-.28-13.24-2.84-18.27-.39-1.24-2.37-.89-3.25-1.63-5.43-19.57,4.61-51.68-13.81-59.29-1.24,3.23-3,6-6.5,6.91,1.16,3.69,5.53,3.54,8.53,4.47.06,5-7.85,3-8.12,6.49-5.42.28-10.27,0-13-2.43-13,5.77-28.15,11.63-43.45,13.8,2.11-5.19,10.23-4.39,14.22-7.71-8.8-2.72-17.59-5.43-22.34-12.19,5.33,1,11.16,4.58,18.68,5.28,5.17.49,10.72,0,16.24.82-1.84-6.27-1.55-17.73,2-23.15-3.33,1.54-4.94,8.32-6.49,13-2.66-3-.38-7.55.81-10.55,1.35-3.43,3.09-6.81,5.28-8.53.31-1.53-2.16-.28-1.63-2,13.63-3.16,20-13.58,21.12-29.24-10.84-3.78-15.68-13.56-18.27-25.59-4.54,2.31-14.69,6.29-17.06,11.38-3.38,7.26-2.5,22,.41,28.42a3.47,3.47,0,0,1-.41,2.44c1.69,5.08,6.47,7.07,10.15,10.15-2.88,3.5-7.19-1.23-8.93-2.84-.14,1.62.72,2.25.41,4.06-7.72,6.09-19.56,8.06-29.65,11.78.31,3.78,4.61,5.62,3.25,9.74-4.88-.67-5.08-6-8.12-8.53-6.44,2.23-9.24,8.09-14.62,11.37-5,6.65-1.11,18-4.47,25.59a273,273,0,0,1,.81,44.26c-.85,13.8-3.87,26.69,2.44,36.55,13.84-5.92,25.43-14.09,36.55-22.74a74.25,74.25,0,0,1-3.25-17.06c-4.46.72-7.16,4.57-11,6.91-8.08,5-17.58,7.45-21.11,17.05.11,1.8.86,3.36-1.22,3.66-3.66-15.53,8.23-18.79,17.46-22.74-3.59-3.44-2.15-12.53-2.43-19.9a77.36,77.36,0,0,1,.81-13c.58-4.35,2.35-8.91,2-12.59-.47-5.39-5.93-8.36-2.84-13.8,2.74,1.18,6.17,5.93,6.49,9.74.13,1.52-1,2.11-1.22,3.66-1.07,7.86,2.42,18.87-.81,25.58,2.61,4.44,3.46,10.62,5.28,15.84,3.34-2.07,5.6-5.23,8.94-7.31,1.6-9,8.52-12.59,12.58-19.09.81-5-.12-11.76,2-15.43,12.53-1.75,28.87,1.24,40.21,2,2.46,9.48-3.78,22,7.71,23.15,2.5,6.31,8.77,8.83,10.56,15.84-7.16-.15-8.53-6.09-11.77-10.16-2.18,5-4.08,10.27-7.31,14.22,2.36,7.66,6.26,15.93,8.12,22.74-5.11-2.3-6.25-9.38-9.75-13.4-1.71,3.42,0,7.17-2.84,9.74-3.24,2.92-16,1.24-25.18.82-6.22-.29-11.08.87-13.81-2-.85-4.36.5-9.71,0-15-3.64-.47-4.35,6.07-3.65,10.15-4.59,3.47-8.76,7.92-14.62,12.59-5.31,4.24-15.19,7.92-15.43,14.62-5.35,9-10.54,22-11,33.3,1.66-4.57,5.31-7.15,4.88-13.81,5.72-10,19.2-20.33,32.08-26.8,4.79-2.41,7.52-3.43,13-3.65,1.85-.08,2.93-1,4.47-.82,6.46.8,8,7.46,10.15,13.41,2.45-2.2,5.52-8.75,10.15-4.88,5.45-4.37,15.42-1.5,18.28,3.66,1.37.15.64-1.8,2.44-1.22A14.9,14.9,0,0,0,231.25,565.31ZM172,400.84a27.33,27.33,0,0,0,3.65,11.78c0,.23.33.46.41,0-4.38-10.13-.88-24.35,2-33.3.74-.61,1-1.69,2-2-.13-1-.64-1.52-.41-2.84,3.66-6.09,8.33-11.16,17.06-12.18,1.27-1.85.6-5.63,3.65-5.69-3,14.13,4.94,26.35,14.21,32.08.5-3-2.57-7.76.41-9.34,2.51,4.81,2.71,11.08,4.06,16.24.34,1.32,1.21,1.92,1.22,3.25.05,6.35-4.8,11.42-6.09,17.06-6.65,4.45-11.6,10.6-12.18,21.12-.28,1.07-2.26.45-2,2,.29,5.52.7,10.94,5.68,11.77-2.54-4.43-5.36-16.52,1.22-18.68,2.36,3,.2,9.19.81,13a12.66,12.66,0,0,0,10.15,10.56c.71-.3-2.3-1.67-.81-2.85,2-.05,6.61,1.68,8.94-.4-4.79-1.44-7.52-4.94-9.35-9.34h-3.24c-3.59-3.61-.35-11.58,2-14.62,4.89-6.27,14.31-11.68,15.83-19.09-4.7,3.42-10.38,11.55-17.46,12.59,5.94-8.41,17-11.68,16.25-26.8,2.55-2.48.15-6.06,0-9.34-.92-.58-2.68-.3-2.85-1.63a9.55,9.55,0,0,1-.81-4.46c-.07-1.15-1.93-.51-1.62-2,.14-6.51-3.51-11.38-4.47-15.43,3.71.89,4.09,5.11,6.5,7.3-.83-5.93-5.25-8.29-9.34-11,.08,1.16.05,2.22-1.22,2-4.38-1.7-8.38-5.07-14.21-4.06-.43-1.51.85-1.31,1.21-2-14.51-.3-19.91,8.51-28.42,14.21-2.53,4.78-6.73,7.88-6.91,14.22-.12,4.59,1.79,9.36-1.21,12.18,4.08.15,3.28-8.09,6.9-9.75C174.08,389.22,171.7,395,172,400.84Zm-6.5,11.37c3.59-1.95,3-10.27,2.84-14.62C166.56,401.07,161.15,407.88,165.47,412.21Zm2.43,3.66c.48-.9,2.66-2.19,1.22-3.66C168.72,413.19,166.81,414.74,167.9,415.87Zm-7.71,3.25c2,.16,1-2.19,0-2.44C160.39,418,159.3,418.27,160.19,419.12Zm61.32,15a8.87,8.87,0,0,0,4.06,1.63c-.67-1.64-.69-3.91-2-4.88C222.93,432,221.75,432.62,221.51,434.14Zm-.81,7.72c.3-1.86,2.5-1.83,2.43-4.06-1.45,0-2.34-.63-3.65-.81C219,438.1,219.49,441.16,220.7,441.86Zm-24,12.59a13.12,13.12,0,0,0,6.09-2c-3.91-1.24-4.68-5.61-6.5-8.94C195.68,446.65,195.63,451.79,196.74,454.45Zm-8.53,42.64c-2.28-11-13.49,4.77-17.87,5.28-.26-2.17,3.08-2.87,2-4.47-5.36,3.74-6.4,17.75-2.84,24.37.22-.55-.29-1.53,0-2,.91-1.56,6.24-5.52,6.9-5.68,2.14-.51,3.87,1.08,6.5.81a18.59,18.59,0,0,1,2-6.09c.5-3.85-3.12-9.28-.41-11.37,1.22,1.63,1.69,4,2.85,5.68C187.53,501.07,188.68,499.33,188.21,497.09Zm30.46,13.4c2.71-3.43,7.22-10.95.81-13.4C219.4,501.48,217.6,506.3,218.67,510.49Zm-75.13,61.72c-4.83,6.87-9.4,21.62-10.56,32.09-.37,3.38-1.33,7.69,1.62,10.15,1.29-8.43,3.75-16.11,7.31-21.93,1.34-2.18,3.74-3.71,4.47-5.69,2.41-6.52.48-13.71,4.87-19.49,0-.49-.12-1-.81-.81C148.7,568.52,145.35,569.63,143.54,572.21ZM141.1,614c2-5.49,3-11.9,7.31-15-1.36-2.16-1.07-6-2.84-7.72C143.15,597.68,139.88,605.37,141.1,614Z" style="fill:#414042;fill-rule:evenodd"/><path d="M805.47,287.14c7.48-3.17,10.76,8.18,5.68,9.74C806.72,298.25,799.11,289.84,805.47,287.14Z" style="fill:#414042;fill-rule:evenodd"/><path d="M347.4,349.27c.83,1.51-.19,2.51-1.22,3.25,5.92.34,13.33-2.36,17.87.41.69,2.23-.3,3.75,2,4.46.3,1.79-1.32,1.67-1.63,2.84,2.74.52,4.41,2.09,6.09,3.66.64,3.56,1,7.38,3.66,8.93.26,5.78,2.14,11.9,0,16.65.49,1.62,3.14-1.1,4.87.41,3.18,6.73-2.07,13.67-4.47,18.68-1.47.49-3.2-.81-3.65,0-.85,3,5.92,3.54,8.53,2,11.06,5,23.16,10.58,33.7,17.46,3.78,2.46,11.13,6.2,5.69,10.56.39,2.4,2.43.84,3.65,2a35.82,35.82,0,0,1,6.1,13c1.26,4.61,3.93,10.92,2.84,16.24-.66,3.21-5.52,7.38-7.72,11a52.94,52.94,0,0,0-5.68,13c4.32-2,5.05-11.19,11.37-12.59.17-3.35-.26-7.3,1.62-8.93,2.24,1.62,1,4.26,1.22,6.49.35,3.84,1.71,7.68,2,11.78,1.92,24.87-.81,49.26-15,58.88.51,10.61.46,23.89.41,33.71,7.82,11.15,20.11,22.9,19.9,41.42-.05,4-1.59,8.25-2,12.59-.74,7.29.61,15-2,21.52a3.89,3.89,0,0,1-4.47-.81c-.29,2.28-.52,4.62-.81,6.9.91.89.16-3.34,2.44-2.43C432,673,429.6,685.27,425.77,694c-1.53.62-2.62,1-4.46.41-2,5-11.68,4.85-10.56-2.84-2.24,2.64-10,6.33-11.78.81-2.5-7.7,6.46-21,6.9-26.4-1.62.86-17.41,16-19.49,3.66-.42-2.51.66-3.45.81-6.09a19.55,19.55,0,0,1,2-2c5.6-14.44,14.92-26.39,24.78-37.36,3-3.39,6.05-8.25,11-8.93-12.34,15.68-23.93,32.11-31.68,52.39,6.4-1.46,7.45-8.26,15-8.53,4-8.83,8.64-17.08,15.43-23.15,1.66-.33,1.4-.06,3.25,0,1.05-3.15.59-7.8,4.47-8.12,2.31-15-13.42-19.19-11.37-32.49,2,.69,1.5,3.92,3.65,4.47.37-6.19-3.23-8.42-5.28-12.18,1.28,3,2.44,6-1.62,6.9,2.55,3.66-2.49,4.86-.41,8.53-.8.8-2.32.26-3.25,0-3.76,4.21-6.73,9.77-9.74,15.43-2.76,5.18-5,12-11,13,2.64-11.71,11.66-20.55,18.68-29.23a64.64,64.64,0,0,0-9.74-2c-5.28,8.54-16.74,19.36-18.28,32.49a24.38,24.38,0,0,0,.81,10.15c1.34,3.83,7.27,7.52,3.66,13-3.32,1.21-4.06-2.55-5.28-4.87-2.23-4.26-5.15-7.7-4.06-13.81-.62-1.47-2,0-3.25-1.22-3.33-5.74-9.67-8.47-11.37-15.84-2.56-1.5-4.86-3.26-7.31-4.87-1.28,8.15-9,11.86-17.06,15.84A94.66,94.66,0,0,1,321,638c-6.51,1.57-11.78,2.06-13.4,8.94,1.38,6.84,4.29,22.31-2,26-1.91.42-2-.94-2.84-1.63-.24,9.38-.65,18.58-4.47,24.37-8.57.05-5.54,15.72-15.43,11.77-2-2.69.07-6.48.81-8.93-1.78-.17-2.79,1.44-4.87,1.22-2.34-.26-3.33-3.58-5.69-2.44-5-4.66-7.35-16.46-9.34-26.4-1.76-8.77-4.31-17.35-4.47-24.77,2.34.34,1.88,3.28,2.44,4.88,1.75,4.93,4.45,10.59,6.09,15.83,1.91-2.69,1.81-7.4,3.66-10.15-2.38-2.46-4.93-2.41-4.47-7.71,1.6-18.38,16.56-36.36,24-49.55-1.47-.68-4.66.72-5.69-1.22a10.15,10.15,0,0,0-4.06,7.31c-.83.87-1.6-.11-2.43-.4-4.84,8.55-10,18.66-12.59,29.64-.8,3.36.05,8.24-3.66,10.15-.72-1.94-3.43-2.41-4.46-4.87-.52-1.24.06-3-.41-4.47-.59-1.84-2.42-3.08-2.84-4.87-2.18-9.14,2.38-17.19,4.87-23.15,5.64-5.73,9.27-13.47,15-19.08a7.46,7.46,0,0,1,3.24-.41c2.51-2.24,1.28-6.94,1.22-11-3.23-1.78-8.25-1.77-6.9-8.12-2.1-2.64-5.83-3.65-5.28-8.94-4-2.64-8.12-6.91-8.53-12.18-.16-2.07,1-4.14,1.22-6.09,1.11-8.16,1.12-15.33,3.25-22.34,1.27-4.16,3.39-8.26,4.06-12.18,1.15-6.74,1-13.5,2-19.9,1.51-9.49,6.15-18,7.31-27.21,1.24-9.76-.07-17.83,4.47-24,4.65-6.28,13.09-10.28,19.9-14.21,7.37-4.26,14.3-8.34,20.3-13.4-3.73-2.7-8.84-12.59-3.25-17.06-4.81-12.77-1.58-30.4,9.34-34.51,1,1.54-1.62,2.27-.81,4.87,1.72.45,3.62-4,6.09-2.84-3.24,7.32-8.76,12.35-9.74,21.93,2.66-.88,2.83-4.43,3.65-6.5a73,73,0,0,1,11.37-19.09c3.4.15,3.72-2.77,7.31-2.43-3.73-2-8.85,3.49-13,2.43.79-2.69,4.48-3.35,6.9-4.47S344.11,347.84,347.4,349.27Zm-15,25.18c7.41-3.42,8.6-16.58,18.68-18.68C337.08,353,335.32,364.94,332.37,374.45ZM354.3,358.2c.41-.81,1.8-.64,1.62-2-1.1.26-3.22-.51-3.65.41C353.66,356.41,353.49,357.8,354.3,358.2Zm5.28-.81c.89.06.87,1,.81,2a3.48,3.48,0,0,0,3.25-2.43C362.85,357.16,360.25,355.82,359.58,357.39Zm-8.12,4.06c.31-1.18,1.92-1.05,1.62-2.84C351.33,358.1,350.68,360.78,351.46,361.45Zm11.77,15.43a13.54,13.54,0,0,0,5.28,5.28v-5.28A6.4,6.4,0,0,0,363.23,376.88Zm2.85,38.18c.06-1.29-1.08-1.36-.82-2.85,2.34-6.14,4.15-14.71,2.44-22.74-1.19-5.61-7.26-9.52-11-11.77-3.19,1.68-5.66,4.08-9.34,5.28-3.09-.63-8.15-.82-11.37-2.44-2.12,3.57-8.18,3.2-10.16,6.9-.1,9.17.4,17.75,2.44,24.77,1.69,1.83,2.86,4.18,4.87,5.69,1.66,5,6,7.23,8.94,11-1.28,1.25-3-.47-4.06-.81.23,1.93,2.94,3.12,1.62,5.28-4.67-2.64-6.05-8.57-10.56-11.37-1.31-3.42-2.05-7.42-4.06-10.15-7.64,1.24-7.14,11-4.06,17.87,1,2.13,4.11,4,2,5.68-2.27-.71-2.39-3.57-4.47-4.47.5,4.68,4,8.4,4.88,11.38-4.5-.73-6.44-5.69-8.53-8.94-2.3-3.58-4.19-7.59-6.5-11A98.35,98.35,0,0,0,297,430.08c-3.49,2.58-8.75,4.75-11.37,8.12-6.23,8-.79,24.47-4.87,35.74-2.74-1.73-.83-8.11-2.44-11-.22,8.86-3.52,16.33-3.25,26,1.49-2.45,2.47-5.88,4.06-8.53s3.55-5.87,6.09-6.09c-4.22,9.18-8.84,17.95-10.15,30,2.31-1.75,5.4-2.72,8.12-4.06a58.06,58.06,0,0,1,4.88-15c2.13-4.18,4.42-9.41,8.53-10.56-3.23,7.07-7.09,13.49-7.72,23.15,4.67-5.75,7.62-13.22,11-20.3-1.36-3.86-5.45-6.9-5.68-10.56,12,2.46,12.09,16.88,15.43,28,2.68-7.06,7.23-14.17,11-19.9,1.21-1.85,2.41-5.25,5.28-4.47-5,9.88-10.68,19.09-11.37,33.3,9.89-.67,20.28-.83,29.65-2-4-10.94,3.07-20.25,7.71-28,3.73-6.24,7-13.66,12.59-14.21-6.9,10.29-14.23,22.31-14.62,37.76,12.3-4.95,15.3-19.57,21.93-29.64,2.16-3.28,4.71-8.17,9.75-7.72,2.83,3.38-2.12,9.05-4.47,13s-4.79,7.4-5.68,11c5.48-2.22,7.82-7.6,14.62-8.53-.67-6.18,5.07-9.31,8.93-5.27,3.89-4.78,6.18-11.15,9.75-16.25,3,6.75-3.23,12.91-3.25,21.12,0,5.2,1,9.56,2,15,1.37-5.71,4.07-9.67,6.9-14.21,2.56-4.1,7.75-8.77,8.53-13,.36-1.94-.46-4.86-.81-7.31-1.07-7.36-2.78-10.26-6.5-14.62-6.46-7.57-16.89-15.85-24.77-20.71-2.18,15.42-13.42,21.78-22.74,30.05-6.22-1-12,6.07-18.68,3.25,1.23-2,5.12-1.38,6.49-3.25-6.64.75-12-2.05-17.86-3.25.3-3.69-5.19-3.74-3.66-7.31,3.44-.31,4.18,3.2,6.5,4.47,7.22,3.93,17-1.18,21.93-2.85,9.81-3.3,17.5-13,17.05-26.39a14.48,14.48,0,0,0-4.87-1.63c-2.51,7-4.32,14.63-8.93,19.5-1.81-1.81,1-4.23,1.21-6.5-1.27-.66-3.06,4.37-4.87,2A80.14,80.14,0,0,0,366.08,415.06Zm8.52-17.87c1.63,0,3-4.11,1.22-4.87C374.7,393.22,374.65,395.2,374.6,397.19Zm-49.94,11c-.79-3.14-2-5.83-2.85-8.93a7.64,7.64,0,0,0-3.25-.41C320.79,401.73,321.6,406.06,324.66,408.15Zm41,34.93h2.84c1.75-3.43,7.57-7,6.91-10.15C372.78,436.92,368.38,439.15,365.67,443.08ZM425,465c-.41,1.88-3.64.77-4.47,1.21-2.07,4.64-5.4,9.1-7.71,14.22s-2.66,11.88-8.12,14.21c-1.54.59-.78-1.11-2-.81.17,3.7-.12,6.92-1.22,9.34,3.08-.17,6.89.4,9.34-.41a12.22,12.22,0,0,1,0-6.49c3.45-9.4,11.25-18.86,17.46-24.78C425.88,470.58,426.61,466.6,425,465Zm6.09,29.64c-.83-1.74-.12-5-1.62-6.09C428.13,490.44,429.61,493.23,431.05,494.65ZM280.8,510.08c-1.66,7.17-.39,15.83-.81,24.77,1.32,4.37,10.08,8.6,9.74,15.44-.07,1.39-2.06,3-2,4.46,0,2.21,2.92,4,2.84,6.09,0,1.17-2,2.61-2,4.47,0,.73,1.09,2,1.22,2.44,1.65,5.88-2.87,5.23-5.28,7.31-1.17,1.89.33,4.14.41,6.09,4-.26,9.54-.12,14.62,0s10.81-.33,13.8,2c-6.86,1.66-16.56.49-22.74,2.84,39.27.85,78,3.12,118.58,2.44-1.1-2.67-4.76-2-6.9-2-21.93-.69-44.93-.31-65.38-1.63-5.89-.38-12,.22-15.43-2.43,27.72-3.22,57.28-.33,86.9-.82,5-20.92,8.76-47.4,6.9-71.47C374.42,504.73,324.27,509.24,280.8,510.08Zm4.46,39c-1.9-5.68-5.38-9.78-11.37-11.37C275.32,543.62,280.62,547.7,285.26,549.07Zm-10.15-3.25c-1.8-.11-3.41-2.07-5.28-.81-.28,8.28,9.82,11.82,16.25,13.4C284.91,551.73,277.64,551.14,275.11,545.82Zm-4.46,11c-3.88,7.93,7.51,10.06,13.4,12.19-.39-2.14-1-3-.41-5.28C278.29,562.4,275.14,558.92,270.65,556.78ZM279.17,573a7,7,0,0,0-4.87-2.85C274.22,572.84,276.63,573,279.17,573Zm-8.12,25.17c-1.81,3.34-3.4,6.89-5.68,9.75-1.29.21-1.79,1.2-3.25,1.22.4,6.21-.66,16.9-.41,21.52,4.44-14,12.22-24.59,21.12-34.11a2.24,2.24,0,0,1,1.62.41c-.38-2.41,1.11-3,1.63-4.47C279.64,590.67,276.72,596.86,271.05,598.2Zm43.86,6.1c.28-1.89,1.58-2.75,2-4.47H314.5C314.91,601.8,314.39,603.13,314.91,604.3Zm49.95,6.9c3.63-2.87,4.88-8.12,8.12-11.37C365.76,598.85,364.47,605.91,364.86,611.2Zm-71.07-10.15c-7.92,14.41-15.52,29.15-20.3,46.7,5.31-5.46,6.95-12.49,10.56-19.09,5-9.17,12.78-15.83,15.43-26.8C297.78,601.52,294.89,600.68,293.79,601.05Zm87.72,8.12c.22.76,2.6-2.31,3.25,0-2.17,3.24-5.43,7.11-4.06,12.59,5.66-7.19,11.28-14.44,17.46-21.12C391.48,602.35,385,604.3,381.51,609.17ZM310.44,612c1.4-2,3.91-5,3.66-7.31C312.76,606.75,310.2,609.73,310.44,612Zm-26.39,34.93c4.06-2.93,6.37-8,9.34-12.19s7.16-8,7.71-13c-.52,0-.56-.52-1.22-.41C295.06,630.34,288.77,637.85,284.05,646.94Zm84.06-24v-1.63c-.61.07-1.5-.14-1.63.41C367.27,621.92,366.8,623.33,368.11,623Zm41.42,57.25c6.42-11.44,14.12-23.78,15.43-39C418.69,652.85,412.48,666.67,409.53,680.23Zm-132-20.3a43.53,43.53,0,0,0-2,7.72c3.29-2.39,7.48-6.06,8.12-9.75C282.38,659.35,280.24,659.91,277.55,659.93Zm17.46,6.5c.27-2.45,1.49-6.08.81-8.12C294.56,660,291.59,664.93,295,666.43Zm-5.28,6.5c1.08-.14,1.37-1.07,1.63-2C289.85,670.61,290.34,672.32,289.73,672.93Zm-18.68,2.43c1.26,5.37,2.28,11,4.47,15.43,1.93-6.32,3.75-12.76,6.5-18.27,0-.5-.13-1-.82-.81C279.33,674.39,275.13,677.36,271.05,675.36Z" style="fill:#414042;fill-rule:evenodd"/><path d="M654.81,353.74c-1.31,3.83-6.54,3.74-11,4.46-3.35,2.88-7.16,5.3-9.74,8.94,4.46-1.38,6.3-7.47,11.77-6.5-3.92,3.79-8.1,7.32-10.55,12.59.71,1.31,2.78,1.27,3.24,2.84,5.09-7.1,10.46-13.9,18.68-17.87-.28-1.61-2.57-1.21-2-3.65.85-.78,2.78-.47,3.66-1.22,2.65,4.12,13.29.25,13.81,6.5-4.16,1.86-7.78-1.61-11.78-.81-6.92,1.37-13.81,13.71-15.84,20.3,9.58-.47,10.6-16.06,19.9-17.46,2.93-.44,4,1.7,6.9-.41,1.41-.05.6,2.12,1.63,2.44,6.34,1.91,9.88,6.63,13.4,11.37-3.28,3.05,1.92,9.93-2.44,13,.47,1.29,2.9.62,3.25,2,.42,6.21-1,13.81-6.5,15.43-1.28,2.56.14,5.31-.81,8.12,4.45,3.92,14.47,5.42,20.71,8.12,9.93,4.3,19.42,9.86,26.8,17.87,3.78,4.09,11.27,11.06,9.34,17.05,2.76,5.37,3.43,12.82,3.25,21.12a41.88,41.88,0,0,1-2.43,4.06c.21,19.76-5.93,37.09-10.56,53.2-1.23,4.27-1.67,11-7.31,11.37-1.23-6.18,1.7-12.44,3.25-18.68,4.34-17.49,11.54-37.32,12.59-57.26.3-5.77-.71-9.81-1.63-14.62-13-14.62-27.83-27.4-47.51-35.33A40.93,40.93,0,0,1,678,433.33c-2.78,2.55-6.15,5.35-10.15,6.5,1.3-3.45,5.09-5.73,7.72-8.94s5.33-6.78,5.68-11.77c-3.93-.52-4.14,4.41-6.09,6.9-2.6,3.33-8.62,8.58-12.18,9.75-5.24,1.71-15.4,1.15-17.46-3.66,21.78,7,29-13.25,30.86-30.86-4.78-.9-7.44-3.93-10.56-6.5-3,.94-5.66-1.49-8.12-2.43-.95.65,2.5,1.78.81,3.24-5.35-1.95-8.57-6-12.59-9.34-.57,2.21,3.59,3.18,3.25,6.5-6-.65-10.06-3.2-14.21-5.68-1.15,3.84-3.63,8.68-3.25,13.8.08,1.06.9,1.67,1.22,2.85,1.18,4.39-.28,9.77.4,13.8.94,5.54,6.69,7.72,6.1,12.19-6.32-1.13-6-8.89-9.34-13-3.84,4.61,2.59,14.08,6.49,18.68,1.14,1.34,3.13,2.14,3.25,3.66-5,.23-7.56-4.79-10.15-8.13-2.85-3.66-6-7.17-8.53-10.55A207.85,207.85,0,0,0,598.77,435h-3.66c-6.83,2.23-6,12.16-12.18,15-4.79-6.9,4.57-18,10.15-19.9a10.69,10.69,0,0,1,3.66-.4c9.08-7.57,22.23-11.07,32.48-17.47v-6.9c-.7-1.33-2.83-1.23-3.65-2.44-3.73-4.28-1-10.38-.41-15,.58-4.86-1.9-10.2,0-14.62.76-1.75,2.43-1.47,3.66-2.84,2.14-2.39,3.5-6.14,6.09-8.94a34.67,34.67,0,0,1,8.12-6.9C646.59,357.05,650.9,350.76,654.81,353.74Zm2.84,26.8c3.68-1.19,6.34-5.57,6.9-8.53C662.55,375.15,658.71,376.45,657.65,380.54ZM682,393.13c.26,1.9-.54,4.86.4,6.09.44-2.43,3.88-5.65,2-7.72C683.84,392.25,682.7,392.46,682,393.13Zm-53.2,5.28c-1.31-1.13.69-5.57-1.22-6.09C626,393.47,627.7,398.8,628.82,398.41Z" style="fill:#414042;fill-rule:evenodd"/><path d="M527.3,430.49c4.46,2.3,9.89,3.64,13.4,6.9.73,9.36,7.49,24.84,2,32.9,1.39,4.36,5,8.95,5.68,14.61.41,3.27.59,10-2.43,10.16-4.33.25-2.77-8.5-3.25-13-.51-4.71-3.22-7.5-3.66-10.15-.88-5.33,1.62-13.31,1.22-20.3-.23-4-1-7.35-1.22-11-4.1-2.12-7.45-5-11.77-6.9-1.91,3.17-.58,5.65-.82,8.93-.49,7-10.53,22-18.27,22.74a16.48,16.48,0,0,1-16.65-11c4.85,3,9.22,8,15.84,6.09,6-1.76,11.89-14.22,13.8-20.31.82-.94,1.48-2,2.85-2.43a4.06,4.06,0,0,1,.4-4.87c-4.69-6.15-9,6.85-15.43,3.65,1-2.41,3.53-2.21,5.28-3.65,2.84-2.36,3.82-6.83,7.72-8.13a86.63,86.63,0,0,0,3.24-29.64c-4.3,1.34-7,5.55-13,6.9-5.09,1.16-12-.11-15.43,2.84-2.15.53-1.26-2-3.25-1.62-1.93,2-3.89,11.24-3.25,15.43.52,3.42,5.32,9.56,8.53,11.78s9.18,1.24,9.34,6.09c-4.56,2.43-7.25-3.41-12.18-3.25-1.69-1.83-3.3-3.75-4.88-5.68.57,10.09-1,28.57-1.62,41.42-.23,5.12,1.3,11.15-2,11.77s-3.77-3.79-5.69-4.87c-.46,4.82.33,10.88-1.22,14.62-2.52-2.28-1.45-5.33-1.62-8.12-.92-15.17-4.12-30.77-3.65-48.33-7.41,1-14.45,2.34-19.5,5.69,1,.77,2.78.74,2.44,2.84-1.38,2-3.47.82-5.28,1.63-2.82,1.26-4,5.38-7.31,4.46,1-11.72,15.15-13.81,25.18-17.87-1.06-11.72,2-21.38,2.84-31.26.29-3.53-.48-7,.81-10.16,3.27-8.06,8-18.17,15-21.93,4.2-2.24,10.62-5,15.84-4.46,1.53.16,2.8,1.28,4.06,1.62,4.79,1.31,8.16,1.17,11.37,3.25,4.16,2.69,5.6,6.12,7.71,12.59.91,2.76,2.06,4.69,2,8.93,0,4,1.14,7.91.82,12.19C530.62,411.41,528.86,421.4,527.3,430.49ZM492.37,384.6c3.32-3.32,6-7.25,8.94-11-.38-.44-1.5-.13-1.22-1.22.29-1.46,5.62-1.79,3.65-2.85C496.51,370.87,494.1,379.15,492.37,384.6ZM484.25,383a5.22,5.22,0,0,0,3.25-3.25,1.94,1.94,0,0,1-1.22-.41C485.52,380.46,484.47,381.3,484.25,383Zm12.59,14.61c1.18-.31,2.33-.64,2.84-1.62C498.5,396.28,497.35,396.61,496.84,397.59Z" style="fill:#414042;fill-rule:evenodd"/><path d="M582.12,454c.65-.11.7.39,1.22.41-.22,22.68,1.95,43,2.84,64.57-2.82.83-2.64,4.67-2.44,8.52,4-2.66,5.87-7.39,12.59-7.31,1.46.91-.86,3.23,2,2.85-3-8.11,2-18.47,6.9-24.37,2-.49,1.37,1.62,2.85,1.63.59-6-2.79-13.68-1.63-20.31,3.9-1,12.11-2.72,15.43-.4-1.28,3.18-8,.95-11.77,1.62,1,3,5.72.42,9.34,1.22,6.38,2.88,18.63,1,28.83,2.84,1-.44-2.28-1-.81-2,6.46-.37,10.67,1.51,13.81,4.47.46,8.52,3.91,19.92,1.62,27.21,1.31,1.66,1.56,4.39,1.62,7.31,2.49,4.55,9.53,4.55,11,10.15-5.2-.35-6.86-4.24-10.56-6.09.92,6.39,2,12.58,2,19.89-.87,2.09-1.77,3-1.62,5.28-1.47.84-2.44,2.17-4.88,2,3.83,3.22,8.84,5.24,13,8.13,9-3.47,20-5,30.86-6.5,1.85.45,2,2.58,4.87,2,5.95,4.34,9.94,10.64,14.22,16.65,0-5-3.31-10.75-4.06-15.84-.49-3.28-1.14-8.58,2.43-10.15-.49,14.09,8.11,19.26,7.72,34.52a64.89,64.89,0,0,1-3.66,19.49c-2.07.63-3.11,2.3-4.46,3.65-2.43-.14-2.79-2.35-4.88-2.84a27.6,27.6,0,0,0,8.13,8.12c2,1.28.89-1.8,2.84-1.62.7.78.92,2.06,1.62,2.84,8.55.59,16.78,5.7,24.77,9.34,3.24,1.47,7.57,3.08,11.78,5.28,2.77,1.45,9,4.78,9.34,7.72a45.76,45.76,0,0,1-2.44,8.12c-.71,1.47-2.57,2.39-3.65,4.06-2.61,4-3.7,9.4-6.09,13-2.3-2.09-.13-6.23.81-8.93,1.07-3.09,2.85-6.08,3.66-8.53,1.07-1.22,3.2-1.4,3.65-3.25-5.11-6.78-13.48-9.47-20.71-13.8s-14.61-9.06-23.15-11.37c-1.24,1.87-1.68,4.54-2.84,6.49.54,1.5,3.75.31,4.06,2-1.25,4.2-4.91,8.06-9.75,7.31-1,.88,1.24,2-.4,2.85-4.08-2.92-6.9-6.88-12.59-6.5-5,.33-9.49,5.14-14.21,5.68-1.4,12.67-2.67,28.09-4.47,41-.6,4.33-.24,10.21-4.87,10.56-1.63-.68-1.81-2.8-1.63-5.28-1.12,5.22-7.24,15.08-11.37,6.5-3.71.88-6.23-.81-6.9-4.07-2.44,1.12-5.74,1-7.31-.81-.49,1,2,4.13,0,5.69-5,2.37-7.12-8-8.53-14.62a141.9,141.9,0,0,1-3.65-32.89c-5.37-4.13.58-8.91.4-15-.07-2.37-2.22-3.38-1.22-6.09-12.42-.3-22.39-3.06-32.08-6.09-1.93-.31-.53,2.71-2.84,2-4.64-2.74-4-6.37-8.12-9.75a37.36,37.36,0,0,0-5.28-3.25c-4.88-2.4-13.28-2.46-15.84-6.09-1.22-1.73-.63-3.92-1.22-6.09-1.89-7-5-15.72-7.31-23.15-.43-1.51.86-1.31,1.22-2-.44-12.9,6.49-21.93,11.37-30.86-.21-1.69-2.3-1.49-2.44-3.25C581.6,504.25,575.45,476.54,582.12,454Zm37.76,42.24c2.56,0,3-2.16,4.06-3.66C621.21,490.77,618.59,494.1,619.88,496.28Zm34.52.4c2.37,3.45.09,11.56,5.28,12.18-.18-5.91-.44-11.74-2-16.24C657.13,494.54,655.42,495.26,654.4,496.68ZM630,493.84A18.75,18.75,0,0,0,626,502c1.06,1.92,3.15,2.8,5.68,3.25,1.93-3.38,6-6.7,6.9-9.75C635.68,495,633.56,493.7,630,493.84ZM639,525.92c3.08-2.52,4.56-7,6.9-11.37,3.26-6.12,9.4-11.26,5.69-19.09C646,504,640,514.18,639,525.92Zm2.84-29.24c-2.57,5.55-6.88,9.37-7.71,16.65,1.7.22,2.27-.71,3.65-.81,2.33-5.39,5.83-9.61,8.53-14.62C644.85,497.44,643.75,496.64,641.81,496.68Zm-36.95,6.9c-.56,1.47-1.79,2.28-2,4.07,2.9-.49,5.48-1.29,7.31-2.85-1.17-.18-1-1.74-2-2C607.69,503.71,606.24,503.61,604.86,503.58Zm38.58,28.84c6.74-4.36,11.28-13.08,9.34-24.77C649.45,515.69,646,523.58,643.44,532.42Zm-41-21.12c2.42,1.76,6.7,6.53.81,7.72.08,2,.1,3.88-.81,4.87,5.78,1.66,12.05,2.84,14.22,8.12,3.11,1.62,6.13-.7,8.93.81-1.06-2.49.41-3.94,1.62-5.28-1.66-.79-1.91-3.2-1.21-5.27-3.74-1.6-17.91-7.55-5.69-9.34C617.7,506.74,608.42,509.07,602.42,511.3Zm58.48,32.49c3-5.7-.12-15.16.41-22.34.19-2.68,1.53-5.12.4-6.9-.52,0-.56-.52-1.22-.41C660.39,524.27,661.21,533.46,660.9,543.79Zm-40.61,2c-5.67-9.1-11.52-19-24-19.9-9.52-.7-14,8.45-17.46,17.46,3-2.25,7.12-6.41,12.18-8.93,4.21-2.1,11.51-6.42,15.43-3.25-.63,1.26-3.1.69-4.46,1.22-3.82,2.94-8.14,4.06-11.78,6.9-5,3.91-6.91,10.5-12.18,14.21-1.33.7-2-1.94-2,0-.64,2.8-1.49,6.94.4,8.94,6.68-7.23,17.84-12.15,28-15.84,2.91-1,9-3.77,11-.41-12.83,4.23-24,10.16-31.68,19.5,4.37.5,6.88,2.87,9.75,4.87,5.57-1.47,9.69-4.39,13.81-7.31-3-3.4-9.54-1.16-10.56-6.09,5.85-1.09,10.28,2.69,15,4.06,4.14-.5,9.79-6.2,15.43-4.87,7.5,1.76-.62,6.81-3.65,8.12-8.18,3.52-17.92,6.79-21.52,12.59,8,5.71,19-10.58,28.42-8.12a3.88,3.88,0,0,1,2.84,3.65c-.31,4.55-8.48,3.16-10.55,6.9,2.61.77,5.07,1.7,7.71,2.44,6-7.29,16.39-12.19,26.4-15,2.54-.73,6.3-2.63,8.53,0-12.19,3.91-23.21,9-29.24,19.08,4.13,4.31,11.39,4.87,18.68,3.25,7.05-5.95,14.94-11,25.18-13.81-16.66-15.29-39.73-24.16-58.89-37,3.18,5.89,8.75,9.39,11.37,15.84C628.54,559.23,623.21,550.5,620.29,545.82Zm55.63,17.46c.46.09.64.45.82.81,1-.25,1.89-.54,2-1.62C677.62,562.54,676,562.12,675.92,563.28Zm3.66,2.84c1.36,0,2.71,0,2.44-1.62C680.5,564.34,679.63,564.82,679.58,566.12Zm12.18,8.53c-1-2-3.3-4.81-6.09-3.65C687.71,572,689.11,575.58,691.76,574.65Zm-4.87,6.5c-4.17,2.64-8.94,6.25-13.81,8.53s-11.34,2.06-14.21,6.9c13.59,3.9,20.47-8.88,31.27-11.78-1.37-.66-.3-3.76-2.44-3.65Zm16.24,22.33c-2.58,2.84-3.85,7-4.06,12.19,3.43,1.3,7.12,2.36,10.56,3.65,1.77,2,2.39,5.19,5.28,6.09A29.51,29.51,0,0,1,720.19,614a4.48,4.48,0,0,1-2-2.84C710.9,613.63,708.73,605.28,703.13,603.48Zm-54.82,1.63c-1.27,3.46-2.41,9.23-1.22,13.8,2.5-4.53,6.54-7.54,9.75-11.37C654,606.71,651.8,605.28,648.31,605.11Zm11.37,3.65c-5.82,3.39-9.95,12-13.4,19.09,2.35,5.37,3.31,12.12,6.09,17,2.7-5.7,7.33-11.35,11.78-16.24,4-4.33,9.9-11.1,16.24-10.15-6.37,4.08-11.13,9.61-16.24,17-5.89,8.58-12.18,17.21-6.09,26.81a94.27,94.27,0,0,1,9.34-15.43c2.63-3.5,10.07-10,11.37-13.81,1.19-3.52.64-8.29,1.62-12.18.44-1.75,2.06-2.85,2-4.88C674.54,613.94,667.51,611,659.68,608.76ZM684.45,621c.5-2,3.09-1.79,4.88-2.44C687.38,616.36,682.56,617.46,684.45,621Zm-21.52,48.73c4.92-7.4,11.47-15.33,12.18-25.59C671,652.28,665.37,661.16,662.93,669.68ZM653.59,675c2.28-6.7-.68-11.31-3.25-16.25C651,664.58,651.31,670.74,653.59,675Z" style="fill:#414042;fill-rule:evenodd"/><path d="M526.48,471.1a14.88,14.88,0,0,1-3.25,7.31c.1,1.12,1.29,1.15,1.63,2-1.13,2.93-3.68,4.44-6.09,6.09.62,1,2.52.72,2.43,2.44-.48,4-3.7,5.23-6.09,7.31-3,6.31-7.71,11-15.43,12.58-.84.12-.38,1.52-1.22,1.63a3.39,3.39,0,0,1-2.43.4c-11.72,12.52-14.85,33.62-30.87,41.83,0,6.61-.49,12.77-6.09,13.81-1.05,5.17-2.58,9.87-2.44,16.24,3.27-8.24,10.4-12.61,15.84-18.68,7.23-.54,13.12-3.08,19.5-2.84a18.15,18.15,0,0,0,3.24.41c5.3-1,11.12-10.2,18.68-9.75,13.75,8.46,30.29,14.11,43.05,23.55,1.31.51.31-1.31,1.62-.81,3.77,1.37,5.57,4.72,8.53,6.9.92-.16-.06-2.22,1.22-2,4.35,6.8,6.6,18.49,3.66,28,.86.67,2-1,4.06-.4.11-2.15-3.43-.64-2.85-3.25,3.69-.26,9,1.29,14.22.81,2.11.57,2.29,2.45,4.46,2,1.72,6,13.34,2.1,14.22,8.94-5.63.78-12.57-3.51-16.25-7.31-2,2,2.91,4.34.82,7.71-5.72,1.78-11.84-2.3-17.47-3.25,2.71-3.09,8.9.1,13-.4.72-.63.27-2.44,1.22-2.84-5.5-3.44-10.93.77-16.25,2-4.47,9.06-9.36,17.7-17.87,22.74-1.77.15-2.08-1.16-3.65-1.22-4.9,16.15-.13,36.38-1.62,54-2.45,1.75-5.54,2.85-7.31,5.28-.38,5-1.36,9.47-3.66,12.59-1.13-3,.11-6.87,0-10.16-2.12,0-6.15,1.38-10.15.82.67,2.77,1.42,6.17-1.22,7.31-5-1.08-3.24-9-6.9-11.37,1.52-4.87-1.92-9.42-2.85-14.22-2-10.63-1-22.06-4.06-32.08-3.66,10.12-8.89,20.47-8.12,33.71a7.93,7.93,0,0,1-5.28,2.43c-1.47,5.57-3.07,11-6.09,15-2.83-3.44,2-9.25.81-15-3.55-2.53-8.05-4.12-11.37-6.9-1.71,4.51,2.33,11.35-1.22,14.21-7-2-3.44-12.94-5.27-19.08-.55-1.83-2.91-3.21-3.25-4.88s.28-4.67.4-6.49c.71-10.57,3.16-23.18,4.47-32.9-2.63-1.65-4.53-4-8.53-3.25-7.41-7.61-16.61-15.59-15-30.86,2-.62,1.22,1.49,2,2,.84-1.19.15-3.91.81-5.28-1-1.14-1.51,1.72-3.66.81-2.78-5.76.38-12.12,2-17.46a124.11,124.11,0,0,1,5.69-15.84c-2.7-1.49-5.72-2.67-8.12-4.46-1.73-5.36-4.64-13.72-2.44-20.31,2.56,4.08,2.15,11.12,5.69,14.22-.15,3,.68,5,2.43,6.09,2.77.3,3.66-1.47,6.09-.41,14.61-8.81,18.73-28.11,27.62-42.64h4.06c1.77-2,2.73-4.85,6.09-5.28-.19-1.45-.66-2.34,0-3.65,3.19-2.09,8.34-2.22,10.15-5.69-3.56-1-8.21.55-8.52-2.84-.39-4.14,9.67-4.33,13-6.5-5.82-1.21-11.51,1.22-17.46,1.22-1.72-5.2,2.13-10.51,5.28-13.4.59,3.49-2.14,7-2.84,10.56,6.57.35,13.67-2.3,19.89-3.66,0-1.46,1-3.32,2-4.87-5.12-1.37-11.6-1.39-17.46-2C509.92,468.51,521.27,469.1,526.48,471.1Zm35.33,115.73c-10.91-6.28-20.08-14.29-30-21.52-7.92-1.42-12.15-6.53-17-11,0-.25-.06-.48-.41-.41-3.56,2.37-8.53,3.81-11.78,6.09-5.74,4-8.45,10.69-12.18,17.06,3.49-3.38,6.92-7.33,10.56-11s6.67-8.15,11.37-9.34c-5.87,8.38-13.81,16.42-19.09,25.59-1.8,3.13-4.62,6.48-5.68,9.34-1.7,4.59-1.29,10.54-2,15.83s-2.5,10.39-1.63,15.84C492.47,600,510.15,583.7,526.08,569c12.67,6.64,36,13.81,39.39,29.23,1.35,6.25-3.27,9.06-2.44,15,4.71-6.42,6.22-18.07,2.44-26.8C565,585.76,563.53,587.44,561.81,586.83Zm-96.24-6.49c3.73-2.64,6.7-6,10.15-8.94C469.92,572,467.55,576,465.57,580.34Zm59.29-6.91c-7.25,6.54-14.11,15.78-20.31,24.77-2.89,4.21-6,8.67-8.52,13-4,6.82-6.11,14.75-11.78,18.68-1.52.4-.89-2-2-.81.67,6.28-3.21,12.14-.81,17.46a124.68,124.68,0,0,1,21.93-28.83c2.55-2.51,5.51-6.9,9.74-5.69C505.64,618.07,501,626.1,496,634.75c-3.76,6.61-8.94,12.84-10.56,19.9,4.86-1.07,9.87-12.21,14.62-11.37,5.37,1-.22,8-1.63,10.56,1.41.63,1.91,2.15,2.85,3.25C506.17,642.6,514,631,516.33,614c-3.89-4.2,1.75-7.2,3.25-11.37.94-2.62.26-5.1,1.62-7.31-.35-1.4-2-1.57-2-3.25C522.11,587.48,531.34,578.61,524.86,573.43Zm1.22,21.93c.18-.93,2.24-2.05,1.22-2.84C527,593.29,525.34,594.86,526.08,595.36Zm-2.44,18.28c5.25-1.66,1.64-12.17,11-9.75,1.41-2.93,3.44-5.23,4.47-8.53-2.46-.51-3.58-2.37-6.09-2.84C529.94,599.37,525.13,606.58,523.64,613.64Zm17.06-2c1.6-1.84,3.09-5.77,6.9-4.07a11.19,11.19,0,0,0-3.25-7.31C543.12,603.66,537.54,607.66,540.7,611.61Zm3.24,14.21c1.68-2.66,2.65-8.18,2.85-11C545.21,617.88,543.39,620.66,543.94,625.82Zm-.81,22.74c1.45-5.46,1.65-14.32.81-20.71C543.42,634.54,540.48,642.36,543.13,648.56Z" style="fill:#414042;fill-rule:evenodd"/></g></svg>