<svg xmlns="http://www.w3.org/2000/svg" xmlns:xlink="http://www.w3.org/1999/xlink" viewBox="0 0 401.75 372.29"><defs><clipPath id="clip-path"><path d="M266.17,197S230.89,99.15,201.63,91.83c-4.78-1.19,6,6,6,6a79.35,79.35,0,0,0-10.88,6.53,75.46,75.46,0,0,0-9.43-7.73c-25.1-16.73-15.54,1.2-15.54,1.2s-15.54,38.25,2.39,56.17,32.27,27.49,37.05,37.05,31.07,10.76,31.07,10.76l4.16-10.89Z" style="fill:#fdad42"/></clipPath><linearGradient id="linear-gradient" x1="59.51" y1="161.75" x2="101.34" y2="161.75" gradientUnits="userSpaceOnUse"><stop offset="0" stop-color="#15ceff"/><stop offset="1" stop-color="#006cd4"/></linearGradient></defs><title>Asset 1123</title><g id="Layer_2" data-name="Layer 2"><g id="objects"><path d="M94.05,368.78C8.9,346.53-11.64,247.15,15.17,144.55S144.49-20.1,244.15,5.94,476.3,140,322.63,221.79,179.19,391,94.05,368.78Z" style="fill:#6b6ff1"/><rect y="36.79" width="270" height="264" rx="5.5" style="fill:#a7c6d1;opacity:0.8"/><rect x="7.5" y="63.35" width="255" height="229.44" style="fill:#fff;opacity:0.54"/><path d="M202.75,55.79h-138a6,6,0,0,1-6-6h0a6,6,0,0,1,6-6h138a6,6,0,0,1,6,6h0A6,6,0,0,1,202.75,55.79Z" style="fill:#d7edf9;opacity:0.54"/><path d="M256.75,55.79h-38a6,6,0,0,1-6-6h0a6,6,0,0,1,6-6h38a6,6,0,0,1,6,6h0A6,6,0,0,1,256.75,55.79Z" style="fill:#d7edf9;opacity:0.54"/><path d="M87,79.79H18.72a3,3,0,0,1-3-3h0a3,3,0,0,1,3-3H87a3,3,0,0,1,3,3h0A3,3,0,0,1,87,79.79Z" style="fill:#99bfd6;opacity:0.54"/><path d="M113.78,79.79H95a3,3,0,0,1-3-3h0a3,3,0,0,1,3-3h18.81a3,3,0,0,1,3,3h0A3,3,0,0,1,113.78,79.79Z" style="fill:#99bfd6;opacity:0.54"/><path d="M156,173.79H87.72a3,3,0,0,1-3-3h0a3,3,0,0,1,3-3H156a3,3,0,0,1,3,3h0A3,3,0,0,1,156,173.79Z" style="fill:#99bfd6;opacity:0.54"/><path d="M182.78,173.79H164a3,3,0,0,1-3-3h0a3,3,0,0,1,3-3h18.81a3,3,0,0,1,3,3h0A3,3,0,0,1,182.78,173.79Z" style="fill:#99bfd6;opacity:0.54"/><rect x="23.07" y="93.79" width="224.25" height="65" style="fill:#7aaac1;opacity:0.85"/><circle cx="14.75" cy="48.79" r="6" style="fill:#d7edf9;opacity:0.54"/><circle cx="31.75" cy="48.79" r="6" style="fill:#d7edf9;opacity:0.54"/><path d="M240.78,79.79H222a3,3,0,0,1-3-3h0a3,3,0,0,1,3-3h18.81a3,3,0,0,1,3,3h0A3,3,0,0,1,240.78,79.79Z" style="fill:#99bfd6;opacity:0.54"/><path d="M210.78,79.79H192a3,3,0,0,1-3-3h0a3,3,0,0,1,3-3h18.81a3,3,0,0,1,3,3h0A3,3,0,0,1,210.78,79.79Z" style="fill:#99bfd6;opacity:0.54"/><path d="M181.78,79.79H163a3,3,0,0,1-3-3h0a3,3,0,0,1,3-3h18.81a3,3,0,0,1,3,3h0A3,3,0,0,1,181.78,79.79Z" style="fill:#99bfd6;opacity:0.54"/><rect x="21.29" y="180.79" width="68.65" height="38" style="fill:#7aaac1;opacity:0.85"/><rect x="99.22" y="180.79" width="68.65" height="38" style="fill:#7aaac1;opacity:0.85"/><rect x="179.1" y="180.79" width="68.65" height="38" style="fill:#7aaac1;opacity:0.85"/><path d="M52,232.79H23.72a3,3,0,0,1-3-3h0a3,3,0,0,1,3-3H52a3,3,0,0,1,3,3h0A3,3,0,0,1,52,232.79Z" style="fill:#99bfd6;opacity:0.54"/><path d="M78.78,232.79H60a3,3,0,0,1-3-3h0a3,3,0,0,1,3-3H78.78a3,3,0,0,1,3,3h0A3,3,0,0,1,78.78,232.79Z" style="fill:#99bfd6;opacity:0.54"/><path d="M60,242.79H23.72a3,3,0,0,1-3-3h0a3,3,0,0,1,3-3H60a3,3,0,0,1,3,3h0A3,3,0,0,1,60,242.79Z" style="fill:#99bfd6;opacity:0.54"/><path d="M86.78,242.79H68a3,3,0,0,1-3-3h0a3,3,0,0,1,3-3H86.78a3,3,0,0,1,3,3h0A3,3,0,0,1,86.78,242.79Z" style="fill:#99bfd6;opacity:0.54"/><path d="M52,253.79H23.72a3,3,0,0,1-3-3h0a3,3,0,0,1,3-3H52a3,3,0,0,1,3,3h0A3,3,0,0,1,52,253.79Z" style="fill:#99bfd6;opacity:0.54"/><path d="M78.78,253.79H60a3,3,0,0,1-3-3h0a3,3,0,0,1,3-3H78.78a3,3,0,0,1,3,3h0A3,3,0,0,1,78.78,253.79Z" style="fill:#99bfd6;opacity:0.54"/><path d="M131,232.79H102.72a3,3,0,0,1-3-3h0a3,3,0,0,1,3-3H131a3,3,0,0,1,3,3h0A3,3,0,0,1,131,232.79Z" style="fill:#99bfd6;opacity:0.54"/><path d="M157.78,232.79H139a3,3,0,0,1-3-3h0a3,3,0,0,1,3-3h18.81a3,3,0,0,1,3,3h0A3,3,0,0,1,157.78,232.79Z" style="fill:#99bfd6;opacity:0.54"/><path d="M139,242.79H102.72a3,3,0,0,1-3-3h0a3,3,0,0,1,3-3H139a3,3,0,0,1,3,3h0A3,3,0,0,1,139,242.79Z" style="fill:#99bfd6;opacity:0.54"/><path d="M165.78,242.79H147a3,3,0,0,1-3-3h0a3,3,0,0,1,3-3h18.81a3,3,0,0,1,3,3h0A3,3,0,0,1,165.78,242.79Z" style="fill:#99bfd6;opacity:0.54"/><path d="M131,253.79H102.72a3,3,0,0,1-3-3h0a3,3,0,0,1,3-3H131a3,3,0,0,1,3,3h0A3,3,0,0,1,131,253.79Z" style="fill:#99bfd6;opacity:0.54"/><path d="M157.78,253.79H139a3,3,0,0,1-3-3h0a3,3,0,0,1,3-3h18.81a3,3,0,0,1,3,3h0A3,3,0,0,1,157.78,253.79Z" style="fill:#99bfd6;opacity:0.54"/><path d="M210,232.79H181.72a3,3,0,0,1-3-3h0a3,3,0,0,1,3-3H210a3,3,0,0,1,3,3h0A3,3,0,0,1,210,232.79Z" style="fill:#99bfd6;opacity:0.54"/><path d="M236.78,232.79H218a3,3,0,0,1-3-3h0a3,3,0,0,1,3-3h18.81a3,3,0,0,1,3,3h0A3,3,0,0,1,236.78,232.79Z" style="fill:#99bfd6;opacity:0.54"/><path d="M218,242.79H181.72a3,3,0,0,1-3-3h0a3,3,0,0,1,3-3H218a3,3,0,0,1,3,3h0A3,3,0,0,1,218,242.79Z" style="fill:#99bfd6;opacity:0.54"/><path d="M244.78,242.79H226a3,3,0,0,1-3-3h0a3,3,0,0,1,3-3h18.81a3,3,0,0,1,3,3h0A3,3,0,0,1,244.78,242.79Z" style="fill:#99bfd6;opacity:0.54"/><path d="M210,253.79H181.72a3,3,0,0,1-3-3h0a3,3,0,0,1,3-3H210a3,3,0,0,1,3,3h0A3,3,0,0,1,210,253.79Z" style="fill:#99bfd6;opacity:0.54"/><path d="M236.78,253.79H218a3,3,0,0,1-3-3h0a3,3,0,0,1,3-3h18.81a3,3,0,0,1,3,3h0A3,3,0,0,1,236.78,253.79Z" style="fill:#99bfd6;opacity:0.54"/><path d="M121.35,268c-3-7.8-8.48-13-22.55-8.26-.07,0-.14.1-.2.07-.77-.42-.45-2.63,0-3.35,2.29-3.67,7.75-4.4,10.94-6.82,11.68-8.86,10.62-15.15,6.1-20.5s-10.76-7.7-22.43,1.15c-2.42,1.83-4.19,7.8-7.21,6.34-5.54-2.7,1.83-12,1.83-17.41,0-16.1-5.85-19.68-13.07-19.68s-13.08,3.58-13.08,19.68c0,5.07,6.78,13.67,1.6,16.21-2.48,1.22-4-3.63-6-5.14-11.67-8.85-17.92-6.49-22.43-1.15s-5.58,11.64,6.1,20.5c2.92,2.22,7.87,2.93,9.95,6.3.47.76.93,3.61,0,3.54-12.3-.9-18.86.87-21.76,8.52S26.93,286.83,41,291.62c6.9,2.35,31.44,9.25,34.24,9.25s27.34-6.9,34.24-9.25C123.57,286.83,124.3,275.8,121.35,268Z" style="fill:#3f43ed"/><rect x="74.51" y="215.59" width="1.48" height="112.25" style="fill:#2d2d2d"/><polygon points="75.42 260.58 74.45 261.64 48.93 240.57 49.9 239.51 75.42 260.58" style="fill:#2d2d2d"/><polygon points="75.08 260.58 76.05 261.64 101.57 240.57 100.59 239.51 75.08 260.58" style="fill:#2d2d2d"/><polygon points="75.61 281.84 75.22 283.19 42.59 274.7 42.98 273.35 75.61 281.84" style="fill:#2d2d2d"/><polygon points="74.89 281.84 75.28 283.19 107.91 274.7 107.52 273.35 74.89 281.84" style="fill:#2d2d2d"/><circle cx="272.75" cy="95.79" r="89" style="fill:#230b2d"/><rect x="224.72" y="30.68" width="84.36" height="2.7" style="fill:#fff;opacity:0.5"/><rect x="224.72" y="38.64" width="29.73" height="2.78" style="fill:#f37820;opacity:0.5"/><rect x="259.02" y="38.64" width="49.97" height="2.78" style="fill:#a84b9b;opacity:0.5"/><rect x="224.72" y="44.35" width="29.73" height="2.7" style="fill:#fff;opacity:0.5"/><rect x="259.02" y="44.35" width="36.48" height="2.7" style="fill:#8cc63f;opacity:0.5"/><rect x="224.72" y="49.68" width="29.73" height="2.85" style="fill:#f37820;opacity:0.5"/><rect x="259.02" y="49.68" width="36.48" height="2.85" style="fill:#fff;opacity:0.5"/><rect x="224.72" y="61.09" width="102.68" height="2.7" style="fill:#a84b9b;opacity:0.5"/><rect x="224.72" y="71" width="111.6" height="2.7" style="fill:#fff;opacity:0.5"/><rect x="246.22" y="65.97" width="59.12" height="2.7" style="fill:#fff;opacity:0.5"/><rect x="224.72" y="75.73" width="102.68" height="2.7" style="fill:#fff;opacity:0.5"/><rect x="224.72" y="83.69" width="29.73" height="2.78" style="fill:#a84b9b;opacity:0.5"/><rect x="259.02" y="83.69" width="49.97" height="2.78" style="fill:#fff;opacity:0.5"/><rect x="224.72" y="89.4" width="29.73" height="2.7" style="fill:#f37820;opacity:0.5"/><rect x="259.02" y="89.4" width="36.48" height="2.7" style="fill:#8cc63f;opacity:0.5"/><rect x="224.72" y="94.73" width="29.73" height="2.85" style="fill:#a84b9b;opacity:0.5"/><rect x="259.02" y="94.73" width="36.48" height="2.85" style="fill:#8cc63f;opacity:0.5"/><rect x="224.72" y="106.15" width="102.68" height="2.7" style="fill:#fff;opacity:0.5"/><rect x="246.22" y="111.03" width="59.12" height="2.7" style="fill:#fff;opacity:0.5"/><rect x="224.72" y="65.97" width="19.32" height="2.7" style="fill:#a84b9b;opacity:0.5"/><rect x="224.72" y="111.03" width="19.32" height="2.7" style="fill:#f37820;opacity:0.5"/><rect x="224.72" y="120.61" width="102.68" height="2.7" style="fill:#fff;opacity:0.5"/><rect x="224.72" y="128.57" width="29.73" height="2.78" style="fill:#a84b9b;opacity:0.5"/><rect x="259.02" y="128.57" width="49.97" height="2.78" style="fill:#a84b9b;opacity:0.5"/><rect x="224.72" y="134.28" width="29.73" height="2.7" style="fill:#fff;opacity:0.5"/><rect x="259.02" y="134.28" width="36.48" height="2.7" style="fill:#8cc63f;opacity:0.5"/><rect x="224.72" y="139.61" width="29.73" height="2.85" style="fill:#f37820;opacity:0.5"/><rect x="259.02" y="139.61" width="36.48" height="2.85" style="fill:#fff;opacity:0.5"/><rect x="224.72" y="145.05" width="29.73" height="2.85" style="fill:#a84b9b;opacity:0.5"/><rect x="259.02" y="145.05" width="36.48" height="2.85" style="fill:#8cc63f;opacity:0.5"/><rect x="224.72" y="156.46" width="71.64" height="2.7" style="fill:#fff;opacity:0.5"/><rect x="246.22" y="161.34" width="59.12" height="2.7" style="fill:#fff;opacity:0.5"/><rect x="224.72" y="161.34" width="19.32" height="2.7" style="fill:#f37820;opacity:0.5"/><path d="M177.24,323.7V230.47a5.38,5.38,0,0,1,5.38-5.37h81.27a5.39,5.39,0,0,1,5.38,5.37V323.7h3.58V230.47a9,9,0,0,0-9-9H182.62a9,9,0,0,0-9,9V323.7Z" style="fill:#7aaac1"/><path d="M132.31,169.1v4H119.59l-6.77-2.1-3.59-2.09s-7.45,3.82-8.36,2.09c-1.36-2.56,10.75-6.27,10.75-6.27Z" style="fill:#db9c86"/><path d="M121.55,166.2l28.69-.27s3.58-52.58,8.36-60.95,28.69-8.37,28.69-8.37l-8.37,34.66s-9.49,40.65-20.32,47.81-15.31-2.44-37-4.68Z" style="fill:#ac6402"/><polygon points="173.06 151.59 165.88 128.88 163.02 161.88 167.37 166.73 168.27 164.74 173.06 151.59" style="fill:#8e5302"/><polygon points="262.58 191.03 234.36 222.56 187.29 194.62 262.58 191.03" style="fill:#0a2346"/><polygon points="169.83 314.43 169.52 290.55 162.15 292.19 168.42 314.43 169.83 314.43" style="fill:#e7b29c"/><path d="M169.83,311.62,174,324.26h-29.5s25.11-2.81,23.09-12.64S169.83,311.62,169.83,311.62Z" style="fill:#4c3526"/><polygon points="169.83 293.58 160.84 290.55 166.4 307.25 169.83 293.58" style="fill:#e7b29c"/><polygon points="173.34 322.17 160.99 317.72 144.26 323.7 174.14 323.7 173.34 322.17" style="fill:#5b4333"/><path d="M239.87,191c16.74,3.59,21.52,1.79,21.52,11.36,0,2.78-3.55,17.39-8.37,19.72-11.76,5.69-82.93,2.43-89.59.55.87,18.39,14,73.2,8.63,92.6l-10.51-1.95c-3.19-15.34-25.66-85-25.66-99.57C135.89,192,211.3,184.91,239.87,191Z" style="fill:#053054"/><polygon points="205.8 314.08 205.47 289.34 197.55 291.04 204.29 314.08 205.8 314.08" style="fill:#e7b29c"/><path d="M205.8,311.17l4.52,13.09H178.64s27-2.91,24.8-13.09S205.8,311.17,205.8,311.17Z" style="fill:#4c3526"/><polygon points="205.8 292.48 196.14 289.34 202.11 306.64 205.8 292.48" style="fill:#e7b29c"/><polygon points="209.57 322.09 196.31 317.49 178.34 323.68 210.43 323.68 209.57 322.09" style="fill:#5b4333"/><path d="M266.17,197S230.89,99.15,201.63,91.83c-4.78-1.19,6,6,6,6a79.35,79.35,0,0,0-10.88,6.53,75.46,75.46,0,0,0-9.43-7.73c-25.1-16.73-15.54,1.2-15.54,1.2s-15.54,38.25,2.39,56.17,32.27,27.49,37.05,37.05,31.07,10.76,31.07,10.76l4.16-10.89Z" style="fill:#fdad42"/><g style="clip-path:url(#clip-path)"><path d="M266.17,197S230.89,99.15,201.63,91.83c-4.78-1.19,6,6,6,6a79.35,79.35,0,0,0-10.88,6.53,75.46,75.46,0,0,0-9.43-7.73c-25.1-16.73-15.54,1.2-15.54,1.2s-15.54,38.25,2.39,56.17,32.27,27.49,37.05,37.05,31.07,10.76,31.07,10.76l4.16-10.89Z" style="fill:#fdad42"/><g style="opacity:0.08"><rect x="218.24" y="103.27" width="1.57" height="94.18" transform="translate(31.49 -37.82) rotate(10.63)" style="fill:#fdad42"/><rect x="205.68" y="101.7" width="1.57" height="94.18" transform="translate(30.99 -35.53) rotate(10.63)" style="fill:#fdad42"/><rect x="191.55" y="103.27" width="1.57" height="94.18" transform="translate(31.03 -32.89) rotate(10.63)" style="fill:#fdad42"/><rect x="178.99" y="98.56" width="1.57" height="94.18" transform="translate(29.96 -30.67) rotate(10.63)" style="fill:#fdad42"/><rect x="241.78" y="100.13" width="1.57" height="94.18" transform="translate(31.31 -42.21) rotate(10.63)" style="fill:#fdad42"/><rect x="229.22" y="98.56" width="1.57" height="94.18" transform="translate(30.82 -39.94) rotate(10.63)" style="fill:#fdad42"/><rect x="207.23" y="108.49" width="1.57" height="94.18" transform="translate(402.68 -16.41) rotate(101.74)" style="fill:#fdad42"/><rect x="209.04" y="95.96" width="1.57" height="94.18" transform="translate(392.6 -33.26) rotate(101.74)" style="fill:#fdad42"/><rect x="207.75" y="81.81" width="1.57" height="94.18" transform="translate(377.18 -49.03) rotate(101.74)" style="fill:#fdad42"/><rect x="212.7" y="69.35" width="1.57" height="94.18" transform="translate(370.94 -68.88) rotate(101.74)" style="fill:#fdad42"/><rect x="209.91" y="132.09" width="1.57" height="94.18" transform="translate(429.01 9.37) rotate(101.74)" style="fill:#fdad42"/><rect x="211.72" y="119.57" width="1.57" height="94.18" transform="translate(418.93 -7.48) rotate(101.74)" style="fill:#fdad42"/><rect x="168.99" y="76.56" width="1.57" height="94.18" transform="translate(25.73 -29.2) rotate(10.63)" style="fill:#fdad42"/></g><g style="opacity:0.18"><rect x="220.24" y="110.27" width="1.57" height="94.18" transform="translate(32.82 -38.07) rotate(10.63)" style="fill:#fdad42"/><rect x="207.68" y="108.7" width="1.57" height="94.18" transform="translate(32.31 -35.78) rotate(10.63)" style="fill:#fdad42"/><rect x="193.55" y="110.27" width="1.57" height="94.18" transform="translate(32.36 -33.14) rotate(10.63)" style="fill:#fdad42"/><rect x="180.99" y="105.56" width="1.57" height="94.18" transform="translate(31.29 -30.92) rotate(10.63)" style="fill:#fdad42"/><rect x="243.78" y="107.13" width="1.57" height="94.18" transform="translate(32.64 -42.46) rotate(10.63)" style="fill:#fdad42"/><rect x="231.22" y="105.56" width="1.57" height="94.18" transform="translate(32.15 -40.18) rotate(10.63)" style="fill:#fdad42"/><rect x="209.23" y="115.49" width="1.57" height="94.18" transform="translate(411.94 -9.95) rotate(101.74)" style="fill:#fdad42"/><rect x="211.04" y="102.96" width="1.57" height="94.18" transform="translate(401.86 -26.8) rotate(101.74)" style="fill:#fdad42"/><rect x="209.75" y="88.81" width="1.57" height="94.18" transform="translate(386.44 -42.56) rotate(101.74)" style="fill:#fdad42"/><rect x="214.7" y="76.35" width="1.57" height="94.18" transform="translate(380.2 -62.41) rotate(101.74)" style="fill:#fdad42"/><rect x="211.91" y="139.09" width="1.57" height="94.18" transform="translate(438.27 15.83) rotate(101.74)" style="fill:#fdad42"/><rect x="213.72" y="126.57" width="1.57" height="94.18" transform="translate(428.19 -1.01) rotate(101.74)" style="fill:#fdad42"/><rect x="170.99" y="83.56" width="1.57" height="94.18" transform="translate(27.05 -29.45) rotate(10.63)" style="fill:#fdad42"/></g></g><path d="M255.41,191c24,3,3.31,31.46-2.39,31.08-53.78-3.59,2.39,0-54.09-3.09.93,19,15,75.82,9.26,95.91l-11.28-2c-3.43-15.89-27.55-91.29-27.55-106.35C169.36,184,226.73,187.45,255.41,191Z" style="fill:#093972"/><path d="M139.48,155l-2.5,4.06s-19.44-4.11-22.72-9.3c-.32-.51.14-2.39.14-2.39l6,.34-2-7.3s-6.23-1.16-5.83-2.72c.51-2,8.35.47,8.35.47L132.1,152Z" style="fill:#e7b29c"/><path d="M180.12,91.83a148,148,0,0,1-10.76-12,19.92,19.92,0,0,1-3.59-10.75l-23.9,7.17h0s-2.51,11.41-1.2,13.14c.72,1,4.79,0,4.79,0s4.78,7.17,7.17,8.37,8.36-7.17,13.14-1.2,6,7.18,6,7.18l10.76-12-4-.59" style="fill:#e7b29c"/><polygon points="193.37 171.91 203.93 109.76 185.01 164.74 193.37 171.91" style="fill:#d07902"/><path d="M133.5,151.59c6,2.39,35.46,15.93,38.25,8.37,8.37-22.71,7.5-53.71,7.17-63.35-.46-13.66,22.24-10.14,33.47,1.2,0,0-11.7,23.22-14.35,31.07-4.14,12.31-8.64,42.11-20.31,47.81-9.25,4.51-30.27-10.22-47.18-16.79Z" style="fill:#f08d02"/><path d="M161,57.17c-5.42,0-12.3,1.66-16.58,5.68-4.8,1.41-10.91,4.27-10.91,6.87,0,3.31,4.43,6,8,6.5a2.27,2.27,0,0,0,1.24.07A6.52,6.52,0,0,0,146.37,75c2.38-1,5.12-1.91,7.45-1.09s14.79,3.22,15.93,5.88c3,7,6.78,24,6.78-7.08A15.21,15.21,0,0,0,161,57.17Z" style="fill:#ce3e17"/><polygon points="158.46 95.34 165.77 88.25 165.77 96.61 158.46 95.34" style="fill:#db9c86"/><rect x="128.83" y="183.86" width="4.78" height="139.84" style="fill:#99bfd6;opacity:0.54"/><polygon points="101.34 179.08 78.64 179.08 59.51 144.42 81.03 144.42 101.34 179.08" style="fill:url(#linear-gradient)"/><path d="M123.71,177.89H79v0L60.69,145.62H81.4l19.88,34.44,1.1-.46-20.09-35-.07-.22s-23.59-.22-24.08,0a1.79,1.79,0,0,0-.84,2.39s13.52,22.35,18.43,32.59c.19.39,1.78,2.05,2.56,2.05h45.42a1.79,1.79,0,0,0,0-3.58Z" style="fill:#181626"/><rect x="21.75" y="181.47" width="380" height="2.39" style="fill:#7aaac1"/><polygon points="221.62 151.47 223.33 179.79 238.83 179.79 240.62 151.47 221.62 151.47" style="fill:#d8d3d0"/><path d="M237.21,151.47v22a4.52,4.52,0,0,1-4.52,4.52l-9.48-.17.12,2h15.5l1.79-28.32Z" style="fill:#e0e0e0"/><polygon points="240.13 149.94 222.04 149.94 222.47 148.79 239.64 148.79 240.13 149.94" style="fill:#e0e0e0"/><rect x="220.75" y="149.94" width="20.67" height="1.53" style="fill:#fff"/><path d="M221.62,156.06l.12,1.68h0l.54,7.68h0l.1,1.35h17.42l.81-10.72Zm1.66,9.5h0a4,4,0,0,0,3.93-4.08h0A4,4,0,0,1,223.28,165.56Z" style="fill:#75603e"/><polygon points="239.81 166.78 240.62 156.06 234.53 156.06 234.53 166.78 239.81 166.78" style="fill:#6b5134"/><circle cx="162.75" cy="80.79" r="6" style="fill:#181626"/><circle cx="163.25" cy="80.29" r="4.5" style="fill:#6b452b"/><path d="M163.75,78.79c-3-12-7-16-11-19-.5-.37-1.05-.73-1.62-1.07l-3,1.6C159.55,65.65,166.65,90.38,163.75,78.79Z" style="fill:#181626"/></g></g></svg>