<svg xmlns="http://www.w3.org/2000/svg" viewBox="0 0 389 365.29"><title>Asset 2</title><g id="Layer_2" data-name="Layer 2"><g id="objects"><path d="M389,232.29c0,88-91,133-197,133S0,281.79,0,178.79,71-79.71,189,48.29,389,144.29,389,232.29Z" style="fill:#fff"/><rect x="54.25" y="53.29" width="270" height="249" rx="5.5" style="fill:#a7c6d1;opacity:0.8"/><rect x="61.75" y="79.85" width="255" height="214.44" style="fill:#fff"/><path d="M257,72.29H119a6,6,0,0,1-6-6h0a6,6,0,0,1,6-6H257a6,6,0,0,1,6,6h0A6,6,0,0,1,257,72.29Z" style="fill:#d7edf9;opacity:0.54"/><path d="M311,72.29H273a6,6,0,0,1-6-6h0a6,6,0,0,1,6-6h38a6,6,0,0,1,6,6h0A6,6,0,0,1,311,72.29Z" style="fill:#99bfd6;opacity:0.54"/><circle cx="69" cy="65.29" r="6" style="fill:#d7edf9;opacity:0.54"/><circle cx="86" cy="65.29" r="6" style="fill:#d7edf9;opacity:0.54"/><rect x="61" y="79.29" width="256" height="29" style="fill:#c5dce2"/><rect x="79" y="88.29" width="183" height="12" style="fill:#fff"/><rect x="230" y="88.29" width="43" height="12" style="fill:#7aaac1"/><rect x="77.47" y="114.29" width="129.93" height="4" style="fill:#f0f1f2"/><rect x="79" y="172.29" width="110" height="4" style="fill:#7aaac1;opacity:0.85"/><rect x="77.47" y="179.29" width="129.93" height="4" style="fill:#99bfd6;opacity:0.54"/><rect x="68" y="126.29" width="148" height="36" style="fill:#dfeef2"/><rect x="77.47" y="187.29" width="93.79" height="4" style="fill:#99bfd6;opacity:0.54"/><rect x="79" y="201.29" width="91" height="4" style="fill:#7aaac1;opacity:0.85"/><rect x="79" y="134.29" width="91" height="4" style="fill:#7aaac1;opacity:0.85"/><rect x="77.47" y="142.29" width="129.93" height="4" style="fill:#99bfd6;opacity:0.54"/><rect x="77.47" y="150.29" width="93.79" height="4" style="fill:#99bfd6;opacity:0.54"/><rect x="77.47" y="208.29" width="129.93" height="4" style="fill:#99bfd6;opacity:0.54"/><rect x="77.47" y="216.29" width="93.79" height="4" style="fill:#99bfd6;opacity:0.54"/><rect x="79" y="229.29" width="122" height="4" style="fill:#7aaac1;opacity:0.85"/><rect x="77.47" y="236.29" width="129.93" height="4" style="fill:#99bfd6;opacity:0.54"/><rect x="77.47" y="244.29" width="93.79" height="4" style="fill:#99bfd6;opacity:0.54"/><rect x="226" y="126.29" width="77" height="63" style="fill:#dff4e6"/><rect x="233.4" y="134.29" width="30.36" height="4" style="fill:#7aaac1;opacity:0.85"/><rect x="233.4" y="141.29" width="49.61" height="4" style="fill:#99bfd6;opacity:0.54"/><rect x="233.4" y="149.29" width="36.28" height="4" style="fill:#99bfd6;opacity:0.54"/><rect x="233.4" y="162.29" width="30.36" height="4" style="fill:#7aaac1;opacity:0.85"/><rect x="233.4" y="169.29" width="49.61" height="4" style="fill:#99bfd6;opacity:0.54"/><rect x="233.4" y="177.29" width="36.28" height="4" style="fill:#99bfd6;opacity:0.54"/><rect x="79" y="259.29" width="91" height="4" style="fill:#7aaac1;opacity:0.85"/><rect x="77.47" y="266.29" width="129.93" height="4" style="fill:#99bfd6;opacity:0.54"/><rect x="77.47" y="274.29" width="93.79" height="4" style="fill:#99bfd6;opacity:0.54"/><polygon points="2 203.29 75.42 127.11 102.47 148.46 150.77 97.37 179.28 123.95 258.16 52.98 249.11 41.48 287.06 42.75 280.95 81.59 271.39 69.68 178.99 153.24 151.8 126.77 104.18 177.57 79.65 156.27 6 227.29 2 203.29" style="fill:#fff"/><path d="M305.3,296.49C301.8,271.12,279.94,251,279.94,251c11.37,5.68,21.86,26.67,25.36,39.36a80.42,80.42,0,0,1,2.09,10.77c2.52-4.16,2.74-17.62-1.78-30.4a205.94,205.94,0,0,0-11.06-25.8c-6.3-12.3-16.87-15.19-23.53-11.5s-6.82,12.76-.57,22.66c2,3.16,13.47,12.65,22.52,24s10,23.56,13.2,22.23C305.91,300.72,305.62,298.79,305.3,296.49Z" style="fill:#f08d02"/><path d="M319.63,199.32c-7.59-.53-15.95,6.56-16.47,20.37a207.58,207.58,0,0,0,.89,28.05c1.3,13.5,7.19,25.6,11.23,28.31a80.87,80.87,0,0,1-2.66-10.65c-2.19-13-1.55-36.43,6.35-46.39,0,0-11.31,27.48-3.76,51.94.68,2.22,1.24,4.09,1.68,5.66,3.49-.15-.89-11.42,2.57-25.72,3.41-14.12,9.79-27.56,10.26-31.27C331.21,208,327.22,199.85,319.63,199.32Z" style="fill:#f08d02"/><path d="M345.09,223.21c-4-2.2-10.29-.47-14,6.88a121,121,0,0,0-6.61,15.41c-3,8.58-2.49,17.69-.44,18.82s2.41-6.23,8-13.23c5.41-6.78,12.26-12.45,13.45-14.34C349.17,230.84,349.07,225.42,345.09,223.21Zm-17.33,29.2c-3.34,14.92-2.41,3.73.3-3.65s10-19.35,17.05-22.17C345.11,226.59,331.1,237.48,327.76,252.41Z" style="fill:#f08d02"/><path d="M363.57,246.1c-5.84-4.88-16.77-4-25.29,6.83a207.21,207.21,0,0,0-15.74,23.24c-6.86,11.69-9.19,24.95-7.51,29.51a82.91,82.91,0,0,1,4.09-10.18c5.84-11.79,20.12-30.41,32.36-33.84,0,0-25.28,15.61-33.51,39.85-.75,2.2-1.4,4-2,5.58,2.91,1.91,6-9.78,17.17-19.33s24.09-16.58,26.66-19.31C367.85,259.92,369.41,251,363.57,246.1Z" style="fill:#f08d02"/><path d="M190.74,133.17a15.17,15.17,0,1,1,12-17.77A15.18,15.18,0,0,1,190.74,133.17Zm-5.45-28.25a13.61,13.61,0,1,0,15.94,10.78A13.62,13.62,0,0,0,185.29,104.92Z" style="fill:#262626"/><rect x="191.58" y="131.66" width="2.12" height="21.58" transform="translate(-23.51 39.11) rotate(-10.93)" style="fill:#262626"/><rect x="188.13" y="132.74" width="5" height="2.19" transform="translate(-21.92 38.58) rotate(-10.93)" style="fill:#262626"/><rect x="190.05" y="136" width="5.88" height="16.58" transform="translate(-23.86 39.22) rotate(-10.93)" style="fill:#ff6700"/><rect x="191.7" y="135.98" width="2.82" height="16.58" transform="translate(-23.85 39.22) rotate(-10.93)" style="fill:#f2501d"/><rect x="191.6" y="151.18" width="5.88" height="2.19" transform="translate(-25.35 39.65) rotate(-10.93)" style="fill:#262626"/><path d="M181.48,122.16a10.3,10.3,0,0,1,17.76-8.87,12.35,12.35,0,1,0-9.53,17A10.28,10.28,0,0,1,181.48,122.16Z" style="fill:#fff;opacity:0.05"/><path d="M187.24,114.05a5,5,0,1,1-5.87-4A5,5,0,0,1,187.24,114.05Z" style="fill:#fff;opacity:0.1"/><path d="M194.52,147.94s-7.32-6.35-6.23-8.16c.89-1.47,6.68-1.49,6.68-1.49l2.52,9.65Z" style="fill:#e7b29c"/><path d="M136.42,207.24s4.83,4.83,6.94,4.83c1.2,0,3.51-2.41,3.2-3.57-.64-2.41-9.47-3.13-9.47-3.13Z" style="fill:#e7b29c"/><polygon points="192 329.29 192 339.29 208 339.29 196 335.29 194 326.29 192 329.29" style="fill:#061323"/><polygon points="153 328.29 156 340.29 146 340.29 149 330.29 153 328.29" style="fill:#061323"/><polygon points="169 242.29 161 298.29 156.35 334.29 146 334.29 149 295.29 146 235.29 169 242.29" style="fill:#061323"/><polygon points="185 229.29 196 278.29 196 333.29 191 333.29 184 282.29 167.5 242.96 185 229.29" style="fill:#09213d"/><circle cx="172.5" cy="145.79" r="10.5" style="fill:#e7b29c"/><polygon points="162 164.29 162 146.29 179.11 153.95 175 164.29 162 164.29" style="fill:#e7b29c"/><path d="M169.5,135.29c3.67,0,6.79,2.88,8,6.91a9.48,9.48,0,0,0-4.35,13.08,7.21,7.21,0,0,1-3.63,1c-4.69,0-8.5-4.7-8.5-10.5S164.81,135.29,169.5,135.29Z" style="fill:#181626"/><polygon points="169 156.29 162 156.29 161 145.29 169 156.29" style="fill:#181626"/><polygon points="190 251.57 171.11 251.57 165 241.08 187 222.29 190 251.57" style="fill:#061323"/><ellipse cx="168.5" cy="165.29" rx="10.5" ry="4" style="fill:#cad1e0"/><rect x="143" y="164.29" width="49" height="84" transform="translate(335 412.59) rotate(180)" style="fill:#0a2346"/><path d="M192,164.29l16.55,6.65L193,146.46l4-2.17s24.45,22.35,22.68,28.88c-3,11.19-29.68,13.62-29.68,13.62Z" style="fill:#0a2346"/><path d="M143,164.29s-31.22,11.47-32,21c-.69,8.47,25,23,25,23l3-3s-8-10-13-15,20-6.41,20-6.41Z" style="fill:#0a2346"/><path d="M143,214.9a29.87,29.87,0,0,1,16.5-4.61c11.42,0,20.93,5.55,23.05,12.89-3.84-5.26-11.82-8.89-21.05-8.89-7.51,0-14.2,2.41-18.5,6.14Z" style="fill:#061323"/><path d="M174,140.29s3-2,3-5-4-4-4-4l-8,7.16Z" style="fill:#181626"/><path d="M194,144.29h0a3,3,0,0,1-3-3h0a3,3,0,0,1,3-3h0a3,3,0,0,1,3,3h0A3,3,0,0,1,194,144.29Z" style="fill:#e7b29c"/><circle cx="269" cy="155.29" r="49" style="fill:#230b2d"/><rect x="242.56" y="119.45" width="46.44" height="1.49" style="fill:#fff;opacity:0.5"/><rect x="242.56" y="123.83" width="16.37" height="1.53" style="fill:#f37820;opacity:0.5"/><rect x="261.44" y="123.83" width="27.51" height="1.53" style="fill:#a84b9b;opacity:0.5"/><rect x="242.56" y="126.97" width="16.37" height="1.49" style="fill:#fff;opacity:0.5"/><rect x="261.44" y="126.97" width="20.08" height="1.49" style="fill:#8cc63f;opacity:0.5"/><rect x="242.56" y="129.91" width="16.37" height="1.57" style="fill:#f37820;opacity:0.5"/><rect x="261.44" y="129.91" width="20.08" height="1.57" style="fill:#fff;opacity:0.5"/><rect x="242.56" y="136.19" width="56.53" height="1.49" style="fill:#a84b9b;opacity:0.5"/><rect x="242.56" y="141.65" width="61.44" height="1.49" style="fill:#fff;opacity:0.5"/><rect x="254.39" y="138.88" width="32.55" height="1.49" style="fill:#fff;opacity:0.5"/><rect x="242.56" y="144.25" width="56.53" height="1.49" style="fill:#fff;opacity:0.5"/><rect x="242.56" y="148.63" width="16.37" height="1.53" style="fill:#a84b9b;opacity:0.5"/><rect x="261.44" y="148.63" width="27.51" height="1.53" style="fill:#fff;opacity:0.5"/><rect x="242.56" y="151.78" width="16.37" height="1.49" style="fill:#f37820;opacity:0.5"/><rect x="261.44" y="151.78" width="20.08" height="1.49" style="fill:#8cc63f;opacity:0.5"/><rect x="242.56" y="154.71" width="16.37" height="1.57" style="fill:#a84b9b;opacity:0.5"/><rect x="261.44" y="154.71" width="20.08" height="1.57" style="fill:#8cc63f;opacity:0.5"/><rect x="242.56" y="161" width="56.53" height="1.49" style="fill:#fff;opacity:0.5"/><rect x="254.39" y="163.68" width="32.55" height="1.49" style="fill:#fff;opacity:0.5"/><rect x="242.56" y="138.88" width="10.64" height="1.49" style="fill:#a84b9b;opacity:0.5"/><rect x="242.56" y="163.68" width="10.64" height="1.49" style="fill:#f37820;opacity:0.5"/><rect x="242.56" y="168.96" width="56.53" height="1.49" style="fill:#fff;opacity:0.5"/><rect x="242.56" y="173.34" width="16.37" height="1.53" style="fill:#a84b9b;opacity:0.5"/><rect x="261.44" y="173.34" width="27.51" height="1.53" style="fill:#a84b9b;opacity:0.5"/><rect x="242.56" y="176.48" width="16.37" height="1.49" style="fill:#fff;opacity:0.5"/><rect x="261.44" y="176.48" width="20.08" height="1.49" style="fill:#8cc63f;opacity:0.5"/><rect x="242.56" y="179.42" width="16.37" height="1.57" style="fill:#f37820;opacity:0.5"/><rect x="261.44" y="179.42" width="20.08" height="1.57" style="fill:#fff;opacity:0.5"/><rect x="242.56" y="182.41" width="16.37" height="1.57" style="fill:#a84b9b;opacity:0.5"/><rect x="261.44" y="182.41" width="20.08" height="1.57" style="fill:#8cc63f;opacity:0.5"/><rect x="242.56" y="188.7" width="39.44" height="1.49" style="fill:#fff;opacity:0.5"/><rect x="254.39" y="191.38" width="32.55" height="1.49" style="fill:#fff;opacity:0.5"/><rect x="242.56" y="191.38" width="10.64" height="1.49" style="fill:#f37820;opacity:0.5"/></g></g></svg>